<svg version="1.1" id="Layer_1" xmlns="http://www.w3.org/2000/svg" xmlns:xlink="http://www.w3.org/1999/xlink" x="0px" y="0px"
	 width="100%" viewBox="0 0 1080 1080" enable-background="new 0 0 1080 1080" xml:space="preserve">
<path fill="#red" opacity="1.000000" stroke="#000000" stroke-linecap="round" stroke-linejoin="round" stroke-width="8.000000"
	d="
M646.000000,714.000000 
	C640.166687,702.833313 634.451416,691.602661 628.449707,680.527222 
	C625.489136,675.063782 622.262695,673.948914 616.500000,675.500000 
"/>
<path fill="none" opacity="1.000000" stroke="#000000" stroke-linecap="round" stroke-linejoin="round" stroke-width="6.000000"
	d="
M502.500000,321.500000 
	C499.277527,317.148315 497.681213,311.722473 493.509277,307.989624 
	C491.427338,306.126801 489.321198,305.638977 486.479614,306.426453 
	C477.308136,308.967987 468.348694,312.631744 460.682831,317.772614 
	C446.750488,327.115906 431.498016,333.461975 416.510620,340.522552 
	C409.119293,344.004639 401.724548,347.594025 395.533264,353.037811 
	C389.467560,358.371185 389.480103,361.605499 395.000000,367.500000 
"/>
<path fill="none" opacity="1.000000" stroke="#000000" stroke-linecap="round" stroke-linejoin="round" stroke-width="7.000000"
	d="
M497.000000,314.500000 
	C491.322174,318.618622 484.385529,320.258728 478.482666,323.972473 
	C469.047394,329.908661 459.673309,335.976105 449.954834,341.419342 
	C438.576355,347.792297 426.425110,352.555573 413.982941,356.445374 
	C406.872650,358.668243 401.964050,364.312225 395.597504,367.684113 
	C394.487701,368.271942 394.092590,371.346588 396.005188,372.993958 
	C398.317627,374.985687 398.779236,377.830719 398.917236,380.504272 
	C399.230988,386.584747 401.767029,391.847229 404.599548,396.944702 
	C405.818604,399.138550 405.362396,401.445312 406.106812,403.460541 
	C408.485504,409.900238 411.280151,416.189789 414.018951,422.491760 
	C415.802551,426.595734 419.587738,424.435059 422.500000,425.000000 
"/>
<path fill="none" opacity="1.000000" stroke="#000000" stroke-linecap="round" stroke-linejoin="round" stroke-width="7.000000"
	d="
M521.500000,325.000000 
	C519.247192,324.243439 518.539062,321.598969 516.021118,320.921478 
	C510.895569,319.542328 505.437469,320.217773 501.642853,322.716888 
	C482.983429,335.005920 464.592896,347.744629 444.909943,358.332550 
	C437.125641,362.519897 428.283905,364.710938 420.019531,368.048370 
	C415.458252,369.890381 410.955078,372.090668 410.500000,378.000000 
"/>
<path fill="none" opacity="1.000000" stroke="#000000" stroke-linecap="round" stroke-linejoin="round" stroke-width="7.000000"
	d="
M670.500000,596.000000 
	C672.230774,595.294861 673.851562,595.983032 674.954407,597.047241 
	C679.370911,601.308899 684.613892,604.381653 688.772888,609.267700 
	C696.497498,618.342651 703.164490,628.011780 709.494202,638.003662 
	C712.591370,642.892761 715.236328,647.943298 715.060547,654.001770 
	C715.046387,654.488464 714.318726,654.787537 714.958130,655.535767 
	C718.203613,659.333618 717.161865,663.504822 715.421387,667.465454 
	C714.671692,669.171631 714.958618,671.299622 715.612427,671.871521 
	C720.189514,675.875183 719.263306,681.166199 718.867920,685.989197 
	C718.249084,693.537720 719.499023,701.919250 715.226562,708.317444 
	C711.271973,714.239807 710.934570,720.108643 711.000000,726.500000 
"/>
<path fill="none" opacity="1.000000" stroke="#000000" stroke-linecap="round" stroke-linejoin="round" stroke-width="7.000000"
	d="
M575.500000,391.000000 
	C572.107788,392.186096 568.578857,393.003296 565.491821,394.987244 
	C562.529968,396.890656 559.619751,397.341248 556.433472,395.094330 
	C555.353149,394.332520 552.995178,393.959839 552.080688,394.612976 
	C545.386963,399.393829 537.206238,397.734161 530.029297,400.089203 
	C525.576843,401.550171 520.867310,400.948792 516.497681,402.493378 
	C516.349487,402.545776 516.157898,402.534790 516.001282,402.495056 
	C501.898621,398.920135 490.298218,406.904266 478.080658,411.227875 
	C469.660583,414.207550 461.945404,419.232452 454.013885,423.525665 
	C444.173187,428.852142 437.915283,437.816071 431.585052,446.561584 
	C429.057281,450.053833 432.802460,455.931580 437.502686,456.476715 
	C438.818359,456.629333 440.166656,456.500000 441.500000,456.500000 
"/>
<path fill="none" opacity="1.000000" stroke="#000000" stroke-linecap="round" stroke-linejoin="round" stroke-width="7.000000"
	d="
M316.500000,539.500000 
	C318.041565,542.594910 317.533142,545.377258 316.125275,548.555481 
	C314.216675,552.864075 312.662537,557.361084 311.414032,561.976746 
	C308.670410,572.119812 319.660156,581.071167 329.491119,579.446289 
	C336.033081,578.365051 342.220123,576.319763 344.458740,568.987427 
	C345.021210,567.145203 346.362274,567.815857 347.486084,567.456543 
	C352.551819,565.836853 358.263397,565.613220 362.000000,561.000000 
"/>
<path fill="none" opacity="1.000000" stroke="#000000" stroke-linecap="round" stroke-linejoin="round" stroke-width="6.000000"
	d="
M551.000000,394.500000 
	C549.016602,381.404205 540.211548,373.405060 529.990601,366.513977 
	C523.206909,361.940308 516.467834,357.275085 509.452667,353.079132 
	C504.784149,350.286865 499.856964,349.652405 493.971130,350.174225 
	C478.535187,351.542694 464.447754,356.442230 451.048737,363.591339 
	C441.643768,368.609375 434.342041,375.880981 429.840668,385.928619 
	C428.328125,389.304932 427.328033,393.470062 423.500000,395.500000 
"/>
<path fill="none" opacity="1.000000" stroke="#000000" stroke-linecap="round" stroke-linejoin="round" stroke-width="7.000000"
	d="
M563.000000,443.500000 
	C558.574890,445.970032 559.536316,450.719696 558.587280,454.521790 
	C555.433594,467.155792 550.677124,478.765442 539.477173,486.466797 
	C531.977600,491.623627 523.711487,494.514557 514.522400,495.677063 
	C504.570099,496.936157 494.943390,497.074432 485.509399,493.475342 
	C478.826935,490.925903 472.649780,487.407196 467.002075,482.997345 
	C461.246521,478.503296 456.740509,472.885284 452.460114,467.029144 
	C450.666809,464.575714 448.479431,462.367615 445.000000,462.500000 
"/>
<path fill="none" opacity="1.000000" stroke="#000000" stroke-linecap="round" stroke-linejoin="round" stroke-width="7.000000"
	d="
M515.500000,403.000000 
	C513.670715,405.838348 511.612976,407.810913 508.080017,409.203064 
	C494.626007,414.504425 480.783936,419.069427 468.503357,427.005188 
	C459.374390,432.904297 451.809998,440.612732 444.628021,448.614899 
	C442.246368,451.268585 440.420258,455.078674 443.454498,459.034912 
	C445.053986,461.120300 444.619995,463.328003 443.033478,465.524170 
	C437.949066,472.562439 430.930389,475.440918 422.500000,475.499359 
	C421.833374,475.503998 421.043854,475.734711 420.520508,475.460815 
	C417.720978,473.995819 413.815247,464.130249 414.500000,460.500000 
"/>
<path fill="none" opacity="1.000000" stroke="#000000" stroke-linecap="round" stroke-linejoin="round" stroke-width="8.000000"
	d="
M548.500000,398.000000 
	C551.912170,402.274994 552.815002,407.688080 554.859253,412.559082 
	C556.612610,416.736969 560.425110,419.743500 561.038086,424.495087 
	C561.514221,428.186340 562.664856,431.811554 562.907837,435.506073 
	C563.155884,439.277832 563.025208,442.879974 566.974854,445.045807 
	C568.375793,445.813995 568.587769,447.467346 568.492737,448.999542 
	C567.198425,469.865906 558.243164,486.187897 540.004700,497.007874 
	C538.136658,498.116058 536.306335,499.293335 534.505066,500.507538 
	C529.207642,504.078552 523.530334,505.877777 516.996399,505.578735 
	C506.843384,505.114136 496.599518,505.793579 486.530518,504.715179 
	C482.016876,504.231781 477.743408,500.827179 473.521423,498.461731 
	C467.453033,495.061798 461.971405,490.776642 456.500000,486.500000 
"/>
<path fill="none" opacity="1.000000" stroke="#000000" stroke-linecap="round" stroke-linejoin="round" stroke-width="7.000000"
	d="
M385.000000,514.000000 
	C385.814575,520.541504 383.243042,526.475464 381.349670,532.452393 
	C380.742889,534.367798 379.708008,536.592285 376.549255,537.240112 
	C373.741730,537.815796 371.203857,547.418884 372.551758,550.477173 
	C373.677856,553.032166 374.132385,555.199585 372.032715,557.529480 
	C369.399994,560.450867 370.257904,563.970581 371.596588,566.956726 
	C373.730743,571.717224 373.383789,576.082336 370.999847,580.499939 
	C367.509308,586.968079 364.148071,593.539124 357.500000,597.500000 
"/>
<path fill="none" opacity="1.000000" stroke="#000000" stroke-linecap="round" stroke-linejoin="round" stroke-width="7.000000"
	d="
M692.000000,581.500000 
	C696.160767,590.650879 703.355530,598.030640 707.031555,607.487732 
	C710.552063,616.544556 714.054138,625.627991 718.100647,634.453857 
	C720.688110,640.097656 724.209839,645.323853 729.000000,649.500000 
"/>
<path fill="none" opacity="1.000000" stroke="#000000" stroke-linecap="round" stroke-linejoin="round" stroke-width="7.000000"
	d="
M745.500000,559.500000 
	C751.150940,560.511902 755.450806,564.745483 760.910950,566.377380 
	C762.015747,570.280823 765.436768,574.376648 762.000000,579.000000 
	C765.110779,581.915527 763.987366,587.141541 768.424072,589.635071 
	C772.794128,592.091248 776.685730,595.332153 782.000000,595.500000 
"/>
<path fill="none" opacity="1.000000" stroke="#000000" stroke-linecap="round" stroke-linejoin="round" stroke-width="7.000000"
	d="
M398.500000,383.000000 
	C393.385590,383.307678 389.583923,386.414886 385.477112,388.963104 
	C381.453156,391.459930 379.723114,394.879791 380.513306,399.497711 
	C382.428436,410.690063 384.472351,421.848358 391.998535,431.001190 
	C392.676270,431.825439 393.210327,433.234100 394.019623,433.409515 
	C400.066315,434.720337 400.567291,440.416260 402.927551,444.541443 
	C404.323639,446.981476 405.061066,449.812317 405.988129,452.504089 
	C408.426117,459.582489 412.270264,460.977814 419.048157,458.113983 
	C423.094604,456.404236 426.222809,453.149261 430.500000,452.000000 
"/>
<path fill="none" opacity="1.000000" stroke="#000000" stroke-linecap="round" stroke-linejoin="round" stroke-width="5.000000"
	d="
M765.500000,562.000000 
	C771.023071,565.619568 777.221802,565.763977 783.500000,565.500000 
"/>
<path fill="none" opacity="1.000000" stroke="#000000" stroke-linecap="round" stroke-linejoin="round" stroke-width="6.000000"
	d="
M501.500000,286.500000 
	C500.833344,290.833344 500.166687,295.166656 499.500000,299.500000 
"/>
<path fill="none" opacity="1.000000" stroke="#000000" stroke-linecap="round" stroke-linejoin="round" stroke-width="7.000000"
	d="
M699.500000,458.500000 
	C693.333313,461.333344 687.118835,464.068726 681.023621,467.048309 
	C678.592224,468.236877 676.766357,469.946686 675.834229,472.948517 
	C674.932434,475.852722 672.885071,478.504883 670.953491,480.963501 
	C667.208618,485.730255 665.486816,491.632904 661.950562,496.463806 
	C660.311340,498.703156 660.587463,501.078278 660.500000,503.500000 
"/>
<path fill="none" opacity="1.000000" stroke="#000000" stroke-linecap="round" stroke-linejoin="round" stroke-width="7.000000"
	d="
M616.000000,684.500000 
	C619.515442,688.695312 621.934998,693.487366 621.301819,698.977112 
	C621.079712,700.902954 621.851379,701.822937 622.538879,702.976868 
	C625.499207,707.945618 626.911865,713.413086 627.992981,719.001343 
	C628.570496,721.986206 627.719299,724.143433 625.057800,726.079468 
	C619.696899,729.979126 614.623474,734.281067 609.509583,738.511597 
	C600.487976,745.974670 589.885681,749.861084 578.486206,750.839417 
	C568.578674,751.689758 560.545288,757.135559 551.502625,760.008301 
	C550.649536,760.279419 549.833313,760.666687 549.000000,761.000000 
"/>
<path fill="none" opacity="1.000000" stroke="#000000" stroke-linecap="round" stroke-linejoin="round" stroke-width="7.000000"
	d="
M474.000000,571.000000 
	C469.463715,575.735474 467.517853,582.220276 463.063873,587.058777 
	C461.169342,589.116882 461.902039,591.886292 462.438416,594.512573 
	C463.039886,597.457825 463.166656,600.500000 463.500000,603.500000 
"/>
<path fill="none" opacity="1.000000" stroke="#000000" stroke-linecap="round" stroke-linejoin="round" stroke-width="7.000000"
	d="
M568.500000,665.000000 
	C564.511658,665.958984 561.647522,669.098877 557.557251,670.210632 
	C553.699219,671.259216 552.481934,675.699219 554.018005,679.492737 
	C557.416504,687.886047 561.851257,695.762268 566.547424,703.471130 
	C569.357666,708.084229 573.017456,708.486328 579.500000,705.500061 
	C584.967651,702.981262 585.371765,701.414429 585.173584,695.494202 
	C585.053467,691.903442 582.336792,688.089905 585.902344,684.405518 
	C588.005127,682.232605 590.345886,680.920410 593.010925,680.032776 
	C599.811523,677.767822 606.666687,675.666687 613.500000,673.500000 
"/>
<path fill="none" opacity="1.000000" stroke="#000000" stroke-linecap="round" stroke-linejoin="round" stroke-width="8.000000"
	d="
M705.500000,600.000000 
	C708.502563,598.170898 711.643433,596.615662 714.554077,594.577271 
	C718.827271,591.584656 724.016235,591.619507 729.000610,591.537476 
	C737.331665,591.400208 745.667786,591.419312 753.999512,591.534912 
	C758.012085,591.590576 761.825806,591.305725 765.000000,588.500000 
"/>
<path fill="none" opacity="1.000000" stroke="#000000" stroke-linecap="round" stroke-linejoin="round" stroke-width="7.000000"
	d="
M688.000061,610.500000 
	C685.833374,617.333374 683.432312,624.105225 681.616272,631.030457 
	C680.896301,633.775818 681.320129,636.718323 683.953308,639.052673 
	C690.395874,644.763977 697.437500,649.640137 704.512390,654.481873 
	C707.511169,656.534058 710.797852,655.507507 714.000000,655.000000 
"/>
<path fill="none" opacity="1.000000" stroke="#000000" stroke-linecap="round" stroke-linejoin="round" stroke-width="6.000000"
	d="
M648.500000,516.000000 
	C651.294617,517.795410 653.442932,520.612854 657.514893,520.124329 
	C660.064575,519.818420 660.466370,522.446350 661.024902,524.493225 
	C662.234924,528.927429 662.406311,533.486511 662.432312,538.000366 
	C662.475464,545.498108 662.409668,552.999268 662.163269,560.505371 
	C661.917969,567.980896 662.975159,575.501770 663.517212,582.998779 
	C663.654785,584.900940 665.650452,585.587097 666.465515,587.019592 
	C668.909851,591.315796 671.181824,595.219116 667.695618,600.626099 
	C664.432251,605.687500 660.952332,609.952332 655.500000,612.500000 
"/>
<path fill="none" opacity="1.000000" stroke="#000000" stroke-linecap="round" stroke-linejoin="round" stroke-width="6.000000"
	d="
M623.500000,745.500000 
	C611.330627,746.192993 602.749329,756.357361 590.990540,757.929382 
	C581.924866,759.141357 572.708130,760.606995 564.000000,756.000000 
"/>
<path fill="none" opacity="1.000000" stroke="#000000" stroke-linecap="round" stroke-linejoin="round" stroke-width="7.000000"
	d="
M581.500000,715.000000 
	C578.666687,714.263306 575.843811,714.445557 572.998047,714.989868 
	C563.968750,716.716919 554.883057,716.918030 546.030151,714.394287 
	C540.704468,712.876099 535.936157,714.230896 531.001038,715.504089 
	C529.161194,715.978699 527.333313,716.500000 525.500000,717.000000 
"/>
<path fill="none" opacity="1.000000" stroke="#000000" stroke-linecap="round" stroke-linejoin="round" stroke-width="6.000000"
	d="
M534.000000,305.000000 
	C539.746765,301.170837 544.934570,304.789764 549.343262,307.277710 
	C553.217346,309.463959 558.136475,312.324097 557.531616,318.503082 
	C557.329407,320.568329 559.298828,321.499146 560.552612,322.429047 
	C565.936340,326.421570 569.488953,332.153534 574.439270,336.568115 
	C578.675476,340.345825 579.877686,346.063843 582.189758,351.028046 
	C583.373535,353.569763 583.336487,356.642883 587.499329,356.659668 
	C589.196777,356.666534 590.487549,358.830536 591.506287,360.496124 
	C598.276794,371.565582 603.868835,383.175995 608.074402,395.474548 
	C608.970459,398.094788 607.503174,400.154999 607.500000,402.500000 
"/>
<path fill="none" opacity="1.000000" stroke="#000000" stroke-linecap="round" stroke-linejoin="round" stroke-width="6.000000"
	d="
M407.500000,563.500000 
	C407.762787,564.475647 407.010071,565.362610 408.941132,566.145264 
	C424.964630,572.639343 436.753357,584.130493 446.043182,598.472046 
	C447.635773,600.930664 449.179108,603.591064 452.000000,605.000000 
"/>
<path fill="none" opacity="1.000000" stroke="#000000" stroke-linecap="round" stroke-linejoin="round" stroke-width="7.000000"
	d="
M458.500000,518.000000 
	C456.777313,517.946716 455.035614,518.271545 453.488068,517.014709 
	C441.573151,507.337738 428.155975,505.066040 413.496704,508.987732 
	C412.521881,509.248505 411.500000,509.333344 410.500000,509.500000 
"/>
<path fill="none" opacity="1.000000" stroke="#000000" stroke-linecap="round" stroke-linejoin="round" stroke-width="6.000000"
	d="
M648.000000,612.000000 
	C641.008484,614.044189 637.678894,620.818359 631.959290,624.435669 
	C626.481079,627.900330 620.433594,630.483948 615.050293,634.075378 
	C604.988159,640.788269 597.203491,635.319763 594.496521,625.500977 
	C594.356689,624.993530 594.166626,624.500000 594.000000,624.000000 
"/>
<path fill="none" opacity="1.000000" stroke="#000000" stroke-linecap="round" stroke-linejoin="round" stroke-width="7.000000"
	d="
M700.500000,687.500000 
	C696.567993,687.635376 694.710083,691.022766 692.037598,693.049561 
	C683.266541,699.701599 672.585693,701.005005 662.504639,704.015564 
	C659.345886,704.958923 655.567932,704.569519 653.500000,708.000000 
"/>
<path fill="none" opacity="1.000000" stroke="#000000" stroke-linecap="round" stroke-linejoin="round" stroke-width="8.000000"
	d="
M606.500000,404.000000 
	C604.178711,405.956085 601.685059,407.075043 598.525696,407.642975 
	C589.538391,409.258514 580.218018,420.872345 578.974426,430.996857 
	C578.563660,434.341003 578.008362,437.729919 574.500000,439.500000 
"/>
<path fill="none" opacity="1.000000" stroke="#000000" stroke-linecap="round" stroke-linejoin="round" stroke-width="7.000000"
	d="
M759.500000,592.000000 
	C761.473938,600.212158 762.554016,608.833862 769.990295,614.512756 
	C771.096680,615.357666 771.461365,616.547119 771.540955,617.997742 
	C771.884827,624.268066 774.046692,630.113342 776.000000,636.000000 
"/>
<path fill="none" opacity="1.000000" stroke="#000000" stroke-linecap="round" stroke-linejoin="round" stroke-width="7.000000"
	d="
M387.000000,551.500000 
	C386.264862,546.945312 387.459686,542.732422 390.562592,539.561218 
	C398.679260,531.265869 404.150116,521.354919 409.002228,511.001038 
	C409.318420,510.326355 410.118500,509.480621 409.932129,509.027954 
	C407.204987,502.404633 410.665161,500.356354 416.477234,499.366333 
	C418.290039,499.057556 419.711853,496.914490 421.520813,496.043182 
	C429.812775,492.049347 438.128174,492.294403 445.964142,497.058990 
	C453.463684,501.618958 461.289185,505.955200 467.837891,511.685272 
	C475.523865,518.410461 480.365112,527.454346 483.037140,537.490112 
	C483.610596,539.643860 483.945984,542.026978 486.000000,543.500000 
"/>
<path fill="none" opacity="1.000000" stroke="#000000" stroke-linecap="round" stroke-linejoin="round" stroke-width="8.000000"
	d="
M754.500000,548.000000 
	C751.325256,547.451416 748.120483,546.358154 745.469482,549.474060 
	C744.184875,550.983887 742.215271,550.587219 740.501404,550.477722 
	C730.746033,549.854858 721.366211,551.983215 712.000000,554.250000 
"/>
<path fill="none" opacity="1.000000" stroke="#000000" stroke-linecap="round" stroke-linejoin="round" stroke-width="7.000000"
	d="
M364.500000,516.000000 
	C361.899597,518.897644 359.237549,520.532898 355.407318,517.621948 
	C354.536804,516.960327 352.333801,517.465881 351.026001,518.057495 
	C339.326080,523.349854 326.734833,527.166626 318.000000,537.500000 
	C309.378815,539.971497 307.476440,548.408386 303.087463,554.562378 
	C300.701294,557.908142 297.528564,559.565186 294.000000,561.000000 
"/>
<path fill="none" opacity="1.000000" stroke="#000000" stroke-linecap="round" stroke-linejoin="round" stroke-width="7.000000"
	d="
M552.500000,700.500000 
	C542.273071,698.996216 532.136658,700.300903 522.001160,701.509888 
	C518.327148,701.948120 514.666687,702.500000 511.000000,703.000000 
"/>
<path fill="none" opacity="1.000000" stroke="#000000" stroke-linecap="round" stroke-linejoin="round" stroke-width="7.000000"
	d="
M398.000000,603.500000 
	C399.864838,598.725220 399.152893,593.843384 398.464569,589.005066 
	C397.986572,585.645569 397.348053,582.315125 398.513123,579.004639 
	C399.962097,574.887329 405.177002,572.698059 408.956360,575.069580 
	C415.102692,578.926453 421.320190,582.700806 425.083374,589.453552 
	C427.999451,594.686096 431.584595,599.558899 435.085602,604.438599 
	C435.631073,605.198853 435.301544,605.477539 435.250000,606.000000 
"/>
<path fill="none" opacity="1.000000" stroke="#000000" stroke-linecap="round" stroke-linejoin="round" stroke-width="7.000000"
	d="
M585.000000,357.000000 
	C582.444763,361.500000 584.561462,366.114471 585.180115,370.474426 
	C586.232727,377.891479 588.759338,385.053040 590.114014,392.479218 
	C591.278931,398.865082 591.494141,399.765076 585.468140,401.381256 
	C581.192627,402.527954 578.855408,404.182037 578.287109,408.974762 
	C577.934937,411.944214 575.753479,414.840820 573.950073,417.465698 
	C569.446716,424.020294 570.522278,430.692780 573.000000,437.500000 
"/>
<path fill="none" opacity="1.000000" stroke="#000000" stroke-linecap="round" stroke-linejoin="round" stroke-width="7.000000"
	d="
M755.500000,578.500000 
	C752.926880,571.736694 746.440857,571.299011 740.975830,570.733643 
	C733.797241,569.990906 726.683228,572.616638 719.503479,573.527222 
	C718.467285,573.658630 718.435669,574.634521 718.500000,575.500000 
"/>
<path fill="none" opacity="1.000000" stroke="#000000" stroke-linecap="round" stroke-linejoin="round" stroke-width="7.000000"
	d="
M592.500000,488.000000 
	C589.259277,489.240875 586.214111,489.229248 582.965576,487.567230 
	C578.269531,485.164642 576.077515,486.035492 573.553101,491.026855 
	C572.526550,493.056458 571.538208,494.136200 568.999878,494.134216 
	C567.000427,494.132660 564.996521,495.323120 563.000854,496.002441 
	C560.139465,496.976379 558.749634,498.888550 558.960510,502.002686 
	C559.038391,503.152771 558.839539,504.391632 558.469238,505.489624 
	C557.072937,509.629944 554.591797,510.140900 551.504272,506.995819 
	C550.758606,506.236267 550.066040,505.424561 549.243713,504.521088 
	C546.834045,504.035217 544.956970,505.666321 543.008484,507.012299 
	C539.501099,509.435242 538.962769,511.846313 541.000061,515.500000 
	C544.494629,521.767395 543.563660,523.539001 536.501099,523.430420 
	C534.244202,523.395752 532.507385,523.824158 530.986145,525.487366 
	C528.450806,528.259460 525.016541,529.360291 521.488403,529.927979 
	C519.506409,530.246948 516.800415,529.626404 516.165955,527.937622 
	C514.870361,524.489197 511.927032,523.094421 509.502869,520.996704 
	C505.573059,517.596069 502.221741,517.559814 498.010803,521.013184 
	C496.278809,522.433533 494.666656,524.000000 493.000000,525.500000 
"/>
<path fill="none" opacity="1.000000" stroke="#000000" stroke-linecap="round" stroke-linejoin="round" stroke-width="8.000000"
	d="
M355.000000,596.000000 
	C346.620361,596.824463 338.319885,596.700928 329.981598,595.095520 
	C324.452545,594.031006 318.829681,594.313904 314.000000,598.000000 
"/>
<path fill="none" opacity="1.000000" stroke="#000000" stroke-linecap="round" stroke-linejoin="round" stroke-width="10.000000"
	d="
M707.500000,689.500000 
	C705.629639,698.338501 698.468262,702.688416 691.947510,707.427795 
	C688.408752,709.999695 684.430298,712.033142 680.476624,713.951904 
	C674.932129,716.642578 673.805725,721.994751 672.000000,727.000000 
"/>
<path fill="none" opacity="1.000000" stroke="#000000" stroke-linecap="round" stroke-linejoin="round" stroke-width="7.000000"
	d="
M557.000000,550.500000 
	C553.878296,553.689697 550.242432,556.025452 546.007935,557.522522 
	C538.252258,560.264404 531.439819,565.140686 523.511963,567.539612 
	C521.845886,568.043762 520.333313,569.055542 518.500000,569.000000 
"/>
<path fill="none" opacity="1.000000" stroke="#000000" stroke-linecap="round" stroke-linejoin="round" stroke-width="6.000000"
	d="
M391.500000,364.500000 
	C383.737274,368.141235 375.073090,369.874329 368.452362,375.948090 
	C365.024536,379.092712 362.589294,382.816711 361.136261,387.046814 
	C360.458710,389.019409 359.206512,390.137695 358.000000,391.500000 
"/>
<path fill="none" opacity="1.000000" stroke="#000000" stroke-linecap="round" stroke-linejoin="round" stroke-width="6.000000"
	d="
M611.500000,552.500000 
	C607.480469,552.476746 603.619446,553.196472 600.000916,555.001831 
	C587.153687,561.411499 573.112915,565.045166 560.485352,571.973267 
	C560.101013,572.184143 559.256775,571.783997 559.036255,572.032227 
	C555.433167,576.088562 550.369568,578.295349 546.500000,582.000000 
"/>
<path fill="none" opacity="1.000000" stroke="#000000" stroke-linecap="round" stroke-linejoin="round" stroke-width="7.000000"
	d="
M626.000000,411.500000 
	C623.003845,419.270935 618.401550,426.202240 614.506409,433.503418 
	C613.629517,435.146881 612.841858,436.837646 611.998291,438.499146 
	C609.262024,443.888397 610.847595,446.810211 617.003723,447.465057 
	C618.721985,447.647797 620.723633,447.277374 621.954224,448.544464 
	C627.205505,453.951355 636.054077,451.571045 641.000000,457.500000 
	C645.607605,456.840729 648.632385,459.505310 651.500000,462.500000 
"/>
<path fill="none" opacity="1.000000" stroke="#000000" stroke-linecap="round" stroke-linejoin="round" stroke-width="6.000000"
	d="
M714.500000,669.000000 
	C709.976501,667.906128 706.324829,670.170349 702.485840,671.969849 
	C694.015442,675.940247 685.924011,680.875366 676.500000,682.500000 
"/>
<path fill="none" opacity="1.000000" stroke="#000000" stroke-linecap="round" stroke-linejoin="round" stroke-width="6.000000"
	d="
M599.500000,415.500000 
	C593.677490,421.532410 591.964600,429.598480 589.142456,437.053925 
	C588.255859,439.395935 588.823792,442.376343 589.725342,445.008453 
	C590.510620,447.301178 591.083313,449.666656 591.750000,452.000000 
"/>
<path fill="none" opacity="1.000000" stroke="#000000" stroke-linecap="round" stroke-linejoin="round" stroke-width="6.000000"
	d="
M577.500000,451.500000 
	C578.732849,461.583496 582.782104,470.675842 587.555237,479.470032 
	C588.759705,481.689240 590.296753,483.740845 591.571045,485.959198 
	C593.504700,489.325500 596.456787,491.015808 600.500000,489.500000 
"/>
<path fill="none" opacity="1.000000" stroke="#000000" stroke-linecap="round" stroke-linejoin="round" stroke-width="7.000000"
	d="
M544.500000,321.000000 
	C539.567993,318.625000 537.287537,314.091003 534.948425,309.526459 
	C534.070923,307.814148 534.675476,305.097473 531.995850,304.519196 
	C528.874146,303.845398 525.955505,302.715912 522.474792,303.364685 
	C517.028442,304.379852 512.095459,306.651581 507.030731,308.580658 
	C503.982086,309.741791 500.521912,310.091003 498.000000,312.500000 
"/>
<path fill="none" opacity="1.000000" stroke="#000000" stroke-linecap="round" stroke-linejoin="round" stroke-width="6.000000"
	d="
M653.000000,621.500000 
	C652.648193,623.222229 651.292419,625.061279 650.028259,624.839050 
	C646.392456,624.200012 644.723267,626.923950 642.544861,628.559753 
	C637.240356,632.542908 632.323364,637.050232 626.950562,640.931580 
	C622.636047,644.048523 617.994934,646.809265 612.500000,647.500000 
"/>
<path fill="none" opacity="1.000000" stroke="#000000" stroke-linecap="round" stroke-linejoin="round" stroke-width="6.000000"
	d="
M577.000000,549.000000 
	C577.473999,547.149353 578.401855,545.669556 579.968445,544.459167 
	C581.448486,543.315735 582.821655,541.953796 583.969666,540.476440 
	C586.908264,536.695007 586.668213,532.520325 583.500000,529.000000 
	C580.596069,525.773376 577.585693,525.413086 573.036255,528.552490 
	C566.210266,533.262817 560.053223,538.715454 556.500000,546.500000 
"/>
<path fill="none" opacity="1.000000" stroke="#000000" stroke-linecap="round" stroke-linejoin="round" stroke-width="6.000000"
	d="
M539.000000,626.500000 
	C539.909729,636.954346 546.148621,645.449341 549.436768,655.021729 
	C551.297791,660.439575 551.333801,666.612671 556.500000,670.500000 
"/>
<path fill="none" opacity="1.000000" stroke="#000000" stroke-linecap="round" stroke-linejoin="round" stroke-width="7.000000"
	d="
M663.500000,584.000000 
	C660.010376,583.850586 657.995972,586.872681 656.196472,588.694092 
	C650.755066,594.201782 644.031555,597.355347 637.522522,601.039795 
	C633.297852,603.431213 628.525635,605.074829 625.054993,608.554871 
	C620.849243,612.772034 615.767212,612.739502 610.500000,612.500000 
"/>
<path fill="none" opacity="1.000000" stroke="#000000" stroke-linecap="round" stroke-linejoin="round" stroke-width="8.000000"
	d="
M761.500000,579.500000 
	C748.361084,580.772034 735.084351,579.865906 722.000000,582.000000 
"/>
<path fill="none" opacity="1.000000" stroke="#000000" stroke-linecap="round" stroke-linejoin="round" stroke-width="8.000000"
	d="
M326.000000,540.500000 
	C326.387360,542.747803 327.009918,543.910156 329.978333,544.212646 
	C334.643463,544.688049 339.310913,545.167297 343.987152,545.629883 
	C350.720184,546.295837 357.568329,547.710815 359.947906,555.515869 
	C361.463287,560.486511 364.433838,562.507568 369.500000,561.500000 
"/>
<path fill="none" opacity="1.000000" stroke="#000000" stroke-linecap="round" stroke-linejoin="round" stroke-width="6.000000"
	d="
M639.500000,583.000000 
	C629.584534,591.995972 618.902283,599.768738 606.000000,604.000000 
"/>
<path fill="none" opacity="1.000000" stroke="#000000" stroke-linecap="round" stroke-linejoin="round" stroke-width="8.000000"
	d="
M681.500000,604.000000 
	C680.833374,604.833374 679.871338,605.565430 679.545654,606.515625 
	C676.289124,616.016357 668.921143,622.068359 661.413269,627.888062 
	C659.964111,629.011353 660.248047,631.950134 657.500000,631.500000 
"/>
<path fill="none" opacity="1.000000" stroke="#000000" stroke-linecap="round" stroke-linejoin="round" stroke-width="8.000000"
	d="
M649.500000,508.000000 
	C652.500000,506.833344 655.540222,505.757721 658.481323,504.457703 
	C659.759277,503.892822 660.807495,503.723541 662.005005,504.492188 
	C665.156860,506.515289 668.225708,508.703461 671.526672,510.449646 
	C675.865906,512.745117 677.464966,516.531067 678.558044,520.985779 
	C680.166443,527.540955 682.073730,534.028503 684.051880,540.484070 
	C684.719727,542.663635 684.574219,545.688416 688.000000,546.000000 
"/>
<path fill="none" opacity="1.000000" stroke="#000000" stroke-linecap="round" stroke-linejoin="round" stroke-width="6.000000"
	d="
M557.000000,319.500000 
	C554.054810,320.653687 550.996521,319.741028 547.998657,319.983704 
	C544.217468,320.289764 543.315491,321.536957 544.497070,325.001007 
	C547.207092,332.945770 550.140930,340.977814 553.957275,348.260345 
	C556.282104,352.696594 558.123657,358.032959 562.786011,361.767151 
	C567.200378,365.302704 568.646240,371.686798 570.958252,377.018097 
	C574.614929,385.450165 578.000000,394.000000 581.500000,402.500000 
"/>
<path fill="none" opacity="1.000000" stroke="#000000" stroke-linecap="round" stroke-linejoin="round" stroke-width="6.000000"
	d="
M546.500000,584.000000 
	C554.508789,590.140320 563.313843,594.924316 572.536499,598.915649 
	C574.281738,599.670959 576.500000,599.333313 578.500000,599.500000 
"/>
<path fill="none" opacity="1.000000" stroke="#000000" stroke-linecap="round" stroke-linejoin="round" stroke-width="7.000000"
	d="
M604.500000,653.000000 
	C596.326172,656.027954 589.114868,660.909485 581.546204,665.083801 
	C578.912170,666.536682 576.378052,668.089417 573.500000,669.000000 
"/>
<path fill="none" opacity="1.000000" stroke="#000000" stroke-linecap="round" stroke-linejoin="round" stroke-width="4.000000"
	d="
M701.000000,554.500000 
	C704.422058,561.111450 705.408142,568.478821 707.452515,575.513794 
	C708.397705,578.766174 708.833313,582.166687 709.500000,585.500000 
"/>
<path fill="none" opacity="1.000000" stroke="#000000" stroke-linecap="round" stroke-linejoin="round" stroke-width="6.000000"
	d="
M402.000000,579.000000 
	C407.889557,585.364624 414.674713,591.177429 416.900421,600.025024 
	C417.716766,603.270325 419.742554,606.390869 418.750000,610.000000 
"/>
<path fill="none" opacity="1.000000" stroke="#000000" stroke-linecap="round" stroke-linejoin="round" stroke-width="3.000000"
	d="
M789.500000,526.000000 
	C779.257935,528.081177 768.963318,529.348389 758.500000,528.000000 
"/>
<path fill="none" opacity="1.000000" stroke="#000000" stroke-linecap="round" stroke-linejoin="round" stroke-width="7.000000"
	d="
M720.500000,472.500000 
	C722.012573,471.113190 723.412964,469.765381 725.457642,468.899933 
	C730.411621,466.802887 731.660522,466.981842 735.533020,470.967926 
	C738.510681,474.032959 741.841003,476.657867 745.319153,479.243256 
	C752.510803,484.588959 755.692261,492.973785 757.980591,501.505219 
	C758.432617,503.190552 758.027283,505.072052 759.475220,506.524719 
	C760.579102,507.632172 760.452881,509.428406 759.909424,510.451935 
	C757.691895,514.628601 757.682556,518.968689 757.904541,523.504700 
	C758.018250,525.826294 759.079041,528.533875 756.543274,530.554321 
	C755.722839,531.208130 756.003357,532.460693 756.480042,533.509094 
	C757.222229,535.141357 757.429626,537.210022 758.571289,538.433594 
	C763.062073,543.246643 763.128967,548.408081 760.500000,554.000000 
"/>
<path fill="none" opacity="1.000000" stroke="#000000" stroke-linecap="round" stroke-linejoin="round" stroke-width="7.000000"
	d="
M591.500000,398.500000 
	C592.743286,398.565063 593.139343,400.046875 595.034302,399.674622 
	C600.396179,398.621185 604.953674,400.911560 609.040283,404.453522 
	C611.672852,406.735168 615.062927,407.307159 618.417297,408.283966 
	C623.762390,409.840515 629.302795,411.261566 634.602722,412.590271 
	C643.687073,414.867798 651.178650,419.464569 658.390259,424.652527 
	C663.074158,428.022064 667.940186,430.857758 672.977966,433.541412 
	C674.017883,434.095398 674.661316,434.380188 676.023315,434.123840 
	C681.196045,433.150208 685.569946,435.133789 688.976318,439.020782 
	C692.565125,443.115936 697.532776,445.436920 701.717529,448.723022 
	C706.621155,452.573608 713.287720,454.102478 718.959839,457.076599 
	C723.128174,459.262238 728.655701,460.510406 728.500000,467.000000 
"/>
<path fill="none" opacity="1.000000" stroke="#000000" stroke-linecap="round" stroke-linejoin="round" stroke-width="6.000000"
	d="
M635.500000,414.000000 
	C634.666626,415.833313 634.304932,418.236542 632.909912,419.391113 
	C629.013672,422.615723 629.748230,426.633942 630.566772,430.485809 
	C633.319580,443.440063 646.582825,448.099426 657.021301,440.027557 
	C660.224670,437.550537 662.786621,434.655518 664.500000,431.000000 
"/>
<path fill="none" opacity="1.000000" stroke="#000000" stroke-linecap="round" stroke-linejoin="round" stroke-width="7.000000"
	d="
M634.000000,571.000000 
	C635.220825,568.202759 636.735474,565.666626 638.957703,563.457458 
	C642.902100,559.536255 643.085754,556.361023 640.000000,553.000000 
	C636.378601,549.055603 631.455505,548.388855 627.521118,551.526489 
	C624.359131,554.048035 621.657166,557.047119 619.500000,560.500000 
"/>
<path fill="none" opacity="1.000000" stroke="#000000" stroke-linecap="round" stroke-linejoin="round" stroke-width="6.000000"
	d="
M601.500000,636.500000 
	C600.328247,638.295959 600.430359,640.704285 597.531006,641.600281 
	C588.490479,644.394348 580.502502,649.283997 572.977173,654.969788 
	C571.807678,655.853271 570.333313,656.333313 569.000000,656.999939 
"/>
<path fill="none" opacity="1.000000" stroke="#000000" stroke-linecap="round" stroke-linejoin="round" stroke-width="6.000000"
	d="
M641.000000,458.000000 
	C638.895935,463.474548 635.025085,466.996735 629.519470,469.052094 
	C624.710327,470.847382 620.147461,473.212433 616.491577,476.991821 
	C615.794128,477.712799 615.379272,478.485046 615.500000,479.500000 
"/>
<path fill="none" opacity="1.000000" stroke="#000000" stroke-linecap="round" stroke-linejoin="round" stroke-width="7.000000"
	d="
M674.000000,435.000000 
	C670.065979,446.815552 662.576111,455.762695 652.653625,463.204865 
	C649.796814,465.347565 646.750427,467.782043 644.371338,470.901855 
	C640.461670,476.028687 635.529724,480.190430 628.500000,480.500000 
"/>
<path fill="none" opacity="1.000000" stroke="#000000" stroke-linecap="round" stroke-linejoin="round" stroke-width="7.000000"
	d="
M572.500000,509.500000 
	C564.919617,515.068726 555.908875,517.663940 547.457520,521.403931 
	C546.264771,521.931702 544.500000,521.166687 543.000000,521.000061 
"/>
<path fill="none" opacity="1.000000" stroke="#000000" stroke-linecap="round" stroke-linejoin="round" stroke-width="6.000000"
	d="
M399.500000,382.500000 
	C401.833344,381.666687 404.311310,381.102631 406.469513,379.943237 
	C410.802582,377.615479 412.077698,377.966003 415.070282,381.947174 
	C416.611511,383.997498 418.011719,386.187347 418.340088,388.522491 
	C418.648987,390.719391 419.441406,392.368683 421.037140,393.444916 
	C424.211578,395.585938 424.963013,398.727539 424.419037,401.986481 
	C423.171173,409.462280 422.990631,417.307037 423.616272,424.445984 
	C424.252686,431.708344 424.284271,440.433380 430.500000,446.500000 
"/>
<path fill="none" opacity="1.000000" stroke="#000000" stroke-linecap="round" stroke-linejoin="round" stroke-width="3.000000"
	d="
M791.000000,517.000000 
	C782.221741,515.206970 773.334595,516.299438 764.500000,516.000000 
"/>
<path fill="none" opacity="1.000000" stroke="#000000" stroke-linecap="round" stroke-linejoin="round" stroke-width="6.000000"
	d="
M394.500000,372.000000 
	C391.608337,374.636383 388.108124,376.461639 384.471313,377.387329 
	C376.525940,379.409729 371.757660,384.207489 369.750000,392.000000 
"/>
<path fill="none" opacity="1.000000" stroke="#000000" stroke-linecap="round" stroke-linejoin="round" stroke-width="7.000000"
	d="
M700.500000,449.500000 
	C696.531555,453.121643 691.391846,453.670258 686.484619,454.396057 
	C682.018188,455.056641 678.287170,457.534546 674.018921,458.577423 
	C673.707947,458.653442 673.666687,459.833344 673.500000,460.500000 
"/>
<path fill="none" opacity="1.000000" stroke="#000000" stroke-linecap="round" stroke-linejoin="round" stroke-width="6.000000"
	d="
M600.500000,598.500000 
	C605.955505,601.833740 605.888245,608.785828 610.741089,613.183167 
	C604.896484,619.457520 598.861816,624.014771 590.007080,622.459778 
	C588.399780,622.177551 587.282715,622.837708 585.989685,623.479248 
	C577.509705,627.686279 569.000000,631.833313 560.500000,636.000000 
"/>
<path fill="none" opacity="1.000000" stroke="#000000" stroke-linecap="round" stroke-linejoin="round" stroke-width="6.000000"
	d="
M595.500000,734.500000 
	C595.663452,735.997437 595.139893,736.411316 593.565735,737.141663 
	C585.097961,741.070618 576.331604,743.200684 567.000000,743.000000 
"/>
<path fill="none" opacity="1.000000" stroke="#000000" stroke-linecap="round" stroke-linejoin="round" stroke-width="6.000000"
	d="
M540.000000,636.000000 
	C532.316711,637.898376 525.246460,641.162476 519.050476,646.063782 
	C516.864075,647.793335 514.441467,647.969360 512.000000,648.500000 
"/>
<path fill="none" opacity="1.000000" stroke="#000000" stroke-linecap="round" stroke-linejoin="round" stroke-width="7.000000"
	d="
M607.000000,580.500000 
	C605.228210,579.656616 603.075378,579.474426 601.545532,580.109680 
	C594.910461,582.865173 587.791504,584.339172 581.464844,587.938232 
	C578.710449,589.505127 577.748474,591.620605 578.028748,594.497192 
	C578.208801,596.345459 578.666687,598.166687 579.000000,600.000000 
"/>
<path fill="none" opacity="1.000000" stroke="#000000" stroke-linecap="round" stroke-linejoin="round" stroke-width="8.000000"
	d="
M738.500000,541.500000 
	C729.186218,542.552002 719.924438,544.186890 710.500000,544.000000 
"/>
<path fill="none" opacity="1.000000" stroke="#000000" stroke-linecap="round" stroke-linejoin="round" stroke-width="6.000000"
	d="
M387.500000,618.750000 
	C381.219543,625.352234 374.112366,630.783752 365.485382,633.960327 
	C363.770569,634.591736 362.709930,635.835510 361.500000,637.000000 
"/>
<path fill="none" opacity="1.000000" stroke="#000000" stroke-linecap="round" stroke-linejoin="round" stroke-width="7.000000"
	d="
M610.000000,577.500000 
	C608.333313,573.833313 606.825134,570.083374 604.953796,566.524292 
	C603.210022,563.207642 599.329102,561.816711 594.612305,564.684753 
	C585.217285,570.397339 574.877869,574.425476 566.000000,581.000000 
"/>
<path fill="none" opacity="1.000000" stroke="#000000" stroke-linecap="round" stroke-linejoin="round" stroke-width="6.000000"
	d="
M615.500000,448.000000 
	C614.489441,451.406830 612.191711,453.334229 609.073975,455.128510 
	C602.797180,458.740753 596.740051,462.848389 592.500000,469.000000 
"/>
<path fill="none" opacity="1.000000" stroke="#000000" stroke-linecap="round" stroke-linejoin="round" stroke-width="7.000000"
	d="
M754.000000,602.500000 
	C739.022339,604.602844 726.316833,612.789124 712.500000,618.000000 
"/>
<path fill="none" opacity="1.000000" stroke="#000000" stroke-linecap="round" stroke-linejoin="round" stroke-width="7.000000"
	d="
M554.000000,578.500000 
	C555.400940,579.511597 556.496094,580.818481 558.493042,581.057861 
	C566.054504,581.964050 571.818726,587.032410 578.500000,590.000000 
"/>
<path fill="none" opacity="1.000000" stroke="#000000" stroke-linecap="round" stroke-linejoin="round" stroke-width="3.000000"
	d="
M629.750000,511.500000 
	C633.433289,512.408325 633.901611,514.848816 634.847107,518.407776 
	C636.508362,524.661743 635.255676,530.488281 635.000000,536.500000 
"/>
<path fill="none" opacity="1.000000" stroke="#000000" stroke-linecap="round" stroke-linejoin="round" stroke-width="7.000000"
	d="
M742.000000,530.000000 
	C742.333313,528.000000 742.664734,525.999695 743.000671,524.000122 
	C743.249329,522.519897 743.019653,520.754272 741.948303,520.082397 
	C736.917236,516.927185 731.562744,514.452454 725.500000,514.000000 
"/>
<path fill="none" opacity="1.000000" stroke="#000000" stroke-linecap="round" stroke-linejoin="round" stroke-width="6.000000"
	d="
M541.000000,523.500000 
	C545.367859,532.916260 550.603943,541.901062 557.233337,549.804260 
	C559.303345,552.272034 563.838318,553.546204 568.016724,552.046570 
	C572.507263,550.434998 577.083862,549.299500 582.002014,549.404846 
	C586.535217,549.502014 589.706970,545.879150 593.444519,543.895508 
	C596.765503,542.133057 600.174744,540.200867 602.500000,537.000000 
"/>
<path fill="none" opacity="1.000000" stroke="#000000" stroke-linecap="round" stroke-linejoin="round" stroke-width="6.000000"
	d="
M456.000000,538.250000 
	C461.295410,541.094788 464.640533,545.619751 467.001831,550.999207 
	C468.917267,555.362915 471.292175,559.442383 474.500000,563.000000 
"/>
<path fill="none" opacity="1.000000" stroke="#000000" stroke-linecap="round" stroke-linejoin="round" stroke-width="7.000000"
	d="
M629.500000,774.000000 
	C622.892639,769.034363 615.893372,770.595947 609.050415,773.135864 
	C607.536072,773.697937 606.016846,774.050476 604.500000,774.500000 
"/>
<path fill="none" opacity="1.000000" stroke="#000000" stroke-linecap="round" stroke-linejoin="round" stroke-width="7.000000"
	d="
M435.000000,474.000000 
	C435.410919,480.754089 441.096344,483.784241 445.080841,487.922180 
	C446.827515,489.736053 453.718781,487.528595 456.015198,485.013855 
	C457.602936,483.275116 459.333313,481.666656 461.000000,480.000000 
"/>
<path fill="none" opacity="1.000000" stroke="#000000" stroke-linecap="round" stroke-linejoin="round" stroke-width="6.000000"
	d="
M425.500000,563.000000 
	C432.478668,567.453857 439.815704,571.393555 445.979156,577.022827 
	C447.453033,578.368958 448.666656,580.000000 450.000000,581.500000 
"/>
<path fill="none" opacity="1.000000" stroke="#000000" stroke-linecap="round" stroke-linejoin="round" stroke-width="8.000000"
	d="
M409.000000,503.500000 
	C401.051300,498.025238 392.532806,499.673126 384.000000,501.500000 
"/>
<path fill="none" opacity="1.000000" stroke="#000000" stroke-linecap="round" stroke-linejoin="round" stroke-width="8.000000"
	d="
M726.500000,529.500000 
	C726.333313,525.833313 726.195801,522.165100 725.992371,518.500427 
	C725.752563,514.180847 723.771545,510.670746 720.475281,508.030853 
	C715.600403,504.126587 714.536316,498.890167 713.814575,493.022797 
	C713.226746,488.243927 711.323914,483.526245 709.383728,479.050415 
	C708.134460,476.168427 701.275635,475.251953 697.515259,477.032196 
	C695.430237,478.019318 693.360962,479.149048 691.525452,480.533722 
	C685.457947,485.110901 679.500000,489.833344 673.500000,494.500000 
"/>
<path fill="none" opacity="1.000000" stroke="#000000" stroke-linecap="round" stroke-linejoin="round" stroke-width="6.000000"
	d="
M743.500000,495.500000 
	C738.101685,495.971680 733.189514,497.848083 728.485168,500.473419 
	C725.032043,502.400513 722.664673,505.018066 722.000000,509.000000 
"/>
<path fill="none" opacity="1.000000" stroke="#000000" stroke-linecap="round" stroke-linejoin="round" stroke-width="6.000000"
	d="
M421.000000,476.000000 
	C417.575256,480.775391 414.340607,485.550079 412.838959,491.459076 
	C412.101257,494.361816 411.898254,496.833344 413.000000,499.500000 
"/>
<path fill="none" opacity="1.000000" stroke="#000000" stroke-linecap="round" stroke-linejoin="round" stroke-width="3.000000"
	d="
M685.000000,497.000000 
	C690.306824,504.406158 693.852539,512.729553 697.500000,521.000000 
"/>
<path fill="none" opacity="1.000000" stroke="#000000" stroke-linecap="round" stroke-linejoin="round" stroke-width="6.000000"
	d="
M737.500000,482.500000 
	C731.770081,483.442444 726.307800,484.982971 721.456482,488.438965 
	C719.420410,489.889435 717.088074,491.094452 714.500000,491.500000 
"/>
<path fill="none" opacity="1.000000" stroke="#000000" stroke-linecap="round" stroke-linejoin="round" stroke-width="6.000000"
	d="
M434.500000,555.500000 
	C438.692078,555.091675 441.348175,557.962524 444.549316,559.919312 
	C450.535553,563.578430 454.895447,568.388855 457.250000,575.000000 
"/>
<path fill="none" opacity="1.000000" stroke="#000000" stroke-linecap="round" stroke-linejoin="round" stroke-width="6.000000"
	d="
M627.500000,453.000000 
	C624.028015,460.832703 616.823120,464.495239 609.930664,468.376892 
	C608.814514,469.005463 608.001221,469.835205 607.000000,470.500000 
"/>
<path fill="none" opacity="1.000000" stroke="#000000" stroke-linecap="round" stroke-linejoin="round" stroke-width="6.000000"
	d="
M716.000000,458.000000 
	C714.420532,460.879486 711.740295,462.441681 709.013123,464.022614 
	C704.246155,466.786011 700.250305,470.264130 699.000000,476.000000 
"/>
<path fill="none" opacity="1.000000" stroke="#000000" stroke-linecap="round" stroke-linejoin="round" stroke-width="7.000000"
	d="
M464.500000,530.500000 
	C471.605927,536.928467 474.499115,546.803772 482.500000,552.500000 
"/>
<path fill="none" opacity="1.000000" stroke="#000000" stroke-linecap="round" stroke-linejoin="round" stroke-width="7.000000"
	d="
M383.000000,556.000000 
	C387.422852,563.411438 394.178040,568.849365 399.500000,575.500000 
"/>
<path fill="none" opacity="1.000000" stroke="#000000" stroke-linecap="round" stroke-linejoin="round" stroke-width="7.000000"
	d="
M343.500000,567.000000 
	C336.737030,562.826965 329.661987,559.569336 321.500000,559.500000 
"/>
<path fill="none" opacity="1.000000" stroke="#000000" stroke-linecap="round" stroke-linejoin="round" stroke-width="7.000000"
	d="
M370.500000,566.500000 
	C364.592224,570.869324 359.179779,575.800110 353.986206,580.986206 
	C352.980072,581.990845 352.030396,583.575989 352.602966,584.431030 
	C355.182098,588.282288 353.935181,593.278198 356.894043,597.082397 
	C358.680115,599.378845 357.047943,601.677063 355.021301,603.523376 
	C350.738037,607.425537 345.252991,607.856628 340.000000,609.000000 
"/>
<path fill="none" opacity="1.000000" stroke="#000000" stroke-linecap="round" stroke-linejoin="round" stroke-width="6.000000"
	d="
M600.000000,641.500000 
	C603.897156,650.319153 609.259705,658.399414 613.281067,667.101196 
	C615.466736,671.830750 616.983887,677.829468 615.198914,682.893860 
	C613.894653,686.594482 610.737000,690.107849 607.016418,692.525208 
	C603.937622,694.525513 601.590942,697.680420 597.508301,698.084167 
	C596.694580,698.164673 596.379272,699.485046 596.500000,700.500000 
"/>
<path fill="none" opacity="1.000000" stroke="#000000" stroke-linecap="round" stroke-linejoin="round" stroke-width="6.000000"
	d="
M554.000000,624.000000 
	C554.591858,626.918152 555.320618,629.603699 557.404602,632.080261 
	C560.959900,636.305481 561.852966,641.890442 563.410950,647.027039 
	C565.078979,652.526489 569.907898,657.060303 568.534119,663.507263 
	C568.439453,663.951599 568.677490,664.696411 569.023193,664.970703 
	C574.710205,669.481628 575.817383,676.578369 579.055115,682.469727 
	C580.180176,684.516907 581.052795,686.941650 583.500000,688.000000 
"/>
<path fill="none" opacity="1.000000" stroke="#000000" stroke-linecap="round" stroke-linejoin="round" stroke-width="6.000000"
	d="
M524.000000,577.500000 
	C520.942688,575.413025 520.247681,571.658508 517.638794,568.427612 
	C512.955261,576.665039 505.426636,580.732788 497.000000,583.500000 
"/>
<path fill="none" opacity="1.000000" stroke="#000000" stroke-linecap="round" stroke-linejoin="round" stroke-width="7.000000"
	d="
M613.500000,762.500000 
	C609.768311,763.114807 606.583923,764.997986 603.515503,767.023499 
	C597.229309,771.172974 590.013550,771.633728 583.011963,771.269592 
	C578.324524,771.025635 574.308838,771.377625 570.500000,774.000000 
"/>
<path fill="none" opacity="1.000000" stroke="#000000" stroke-linecap="round" stroke-linejoin="round" stroke-width="6.000000"
	d="
M599.000000,594.000000 
	C601.042664,597.565430 599.496948,599.684570 596.593445,602.111816 
	C593.001892,605.114258 588.543274,608.433472 584.921875,608.927979 
	C579.835327,609.622620 576.296387,612.388428 571.985107,613.959045 
	C569.967285,614.694092 568.134460,613.478333 566.526123,612.458740 
	C563.600708,610.604065 560.927490,608.345154 557.971375,606.547058 
	C555.421448,604.995911 552.679016,603.541138 549.500000,605.000000 
"/>
<path fill="none" opacity="1.000000" stroke="#000000" stroke-linecap="round" stroke-linejoin="round" stroke-width="7.000000"
	d="
M496.500000,633.000000 
	C501.538788,635.626587 506.150421,638.740234 509.531799,643.477295 
	C511.375366,646.060059 511.998810,648.249390 510.647217,651.560120 
	C508.285736,657.344482 506.833344,663.500000 505.000000,669.500000 
"/>
<path fill="none" opacity="1.000000" stroke="#000000" stroke-linecap="round" stroke-linejoin="round" stroke-width="8.000000"
	d="
M621.500000,501.500000 
	C626.986084,502.281494 632.900696,499.403229 638.033752,503.457245 
	C638.444336,503.781555 639.334351,503.475494 639.999817,503.503723 
	C648.233826,503.852997 651.681396,508.355804 647.779663,515.377563 
	C644.543823,521.200928 643.330200,527.367310 641.365723,533.456665 
	C640.502686,536.132141 639.882812,538.762390 639.500000,541.500000 
"/>
<path fill="none" opacity="1.000000" stroke="#000000" stroke-linecap="round" stroke-linejoin="round" stroke-width="4.000000"
	d="
M791.500000,574.000000 
	C789.833313,574.500000 788.172974,575.022339 786.498779,575.495789 
	C781.502136,576.908813 776.500000,578.039917 771.500000,575.500000 
"/>
<path fill="none" opacity="1.000000" stroke="#000000" stroke-linecap="round" stroke-linejoin="round" stroke-width="7.000000"
	d="
M523.500000,581.000000 
	C514.841309,582.674622 511.183777,589.350464 508.000000,596.500000 
"/>
<path fill="none" opacity="1.000000" stroke="#000000" stroke-linecap="round" stroke-linejoin="round" stroke-width="6.000000"
	d="
M749.000000,616.750000 
	C753.764832,618.116211 756.861816,621.035339 758.031982,625.992432 
	C758.867310,629.531311 760.000000,633.000000 761.000000,636.500000 
"/>
<path fill="none" opacity="1.000000" stroke="#000000" stroke-linecap="round" stroke-linejoin="round" stroke-width="8.000000"
	d="
M486.000000,505.500000 
	C486.452087,511.285797 488.500519,516.678528 490.592255,521.963501 
	C492.898438,527.790222 494.393555,533.001709 490.635468,539.083679 
	C485.906769,546.736450 482.329742,555.091980 477.900818,562.944092 
	C476.568726,565.305786 477.472595,567.000000 478.000000,569.000000 
	C484.170746,570.227600 488.346954,573.331116 492.361755,578.731018 
	C497.126068,585.139038 500.402893,593.219910 508.347534,597.297058 
	C509.681061,597.981384 511.784454,600.892883 512.205261,603.971924 
	C512.746033,607.928833 515.251953,611.369568 518.500000,614.000000 
"/>
<path fill="none" opacity="1.000000" stroke="#000000" stroke-linecap="round" stroke-linejoin="round" stroke-width="7.000000"
	d="
M356.500000,533.500000 
	C352.500000,535.616394 348.450989,535.266235 344.517242,533.462402 
	C341.893311,532.259277 339.286530,531.874329 336.500000,532.500000 
"/>
<path fill="none" opacity="1.000000" stroke="#000000" stroke-linecap="round" stroke-linejoin="round" stroke-width="3.000000"
	d="
M593.000000,367.500000 
	C590.799194,370.166656 592.577881,372.888947 593.068970,375.486969 
	C593.803223,379.370544 595.000000,383.166656 596.000000,387.000000 
"/>
<path fill="none" opacity="1.000000" stroke="#000000" stroke-linecap="round" stroke-linejoin="round" stroke-width="7.000000"
	d="
M579.500000,723.500000 
	C568.899780,725.417480 558.188416,725.093689 547.500916,724.936035 
	C544.534180,724.892273 542.861328,727.065308 540.500000,728.000000 
"/>
<path fill="none" opacity="1.000000" stroke="#000000" stroke-linecap="round" stroke-linejoin="round" stroke-width="7.000000"
	d="
M601.000000,477.500000 
	C600.014038,481.333344 602.008667,485.138092 601.049316,489.012207 
	C600.578857,490.912170 602.484558,491.951385 603.565308,492.927704 
	C607.059814,496.084625 611.280701,497.834991 615.994873,498.534698 
	C621.419128,499.339783 621.669556,500.993774 619.653809,506.061188 
	C617.589783,511.250031 613.757263,512.796753 609.105774,514.751709 
	C604.606506,516.642761 599.665588,515.543579 595.500000,518.000000 
"/>
<path fill="none" opacity="1.000000" stroke="#000000" stroke-linecap="round" stroke-linejoin="round" stroke-width="7.000000"
	d="
M567.500000,330.500000 
	C562.838684,332.645172 562.403076,336.720734 563.057190,340.991241 
	C563.723999,345.344574 566.864929,347.016235 570.982178,347.839203 
	C574.531128,348.548615 575.458740,344.334351 578.500000,344.500000 
"/>
<path fill="none" opacity="1.000000" stroke="#000000" stroke-linecap="round" stroke-linejoin="round" stroke-width="7.000000"
	d="
M627.500000,725.000000 
	C630.217773,727.624207 630.093567,731.141541 630.506531,734.499207 
	C630.893433,737.644775 632.088623,740.473328 634.000000,743.000000 
"/>
<path fill="none" opacity="1.000000" stroke="#000000" stroke-linecap="round" stroke-linejoin="round" stroke-width="6.000000"
	d="
M573.000000,493.500000 
	C577.553162,495.195251 580.380859,498.357513 582.107605,502.959625 
	C583.177429,505.810608 584.612122,508.353882 587.844238,510.263580 
	C591.685974,512.533447 594.362427,516.564941 595.626892,521.467285 
	C597.519653,528.805603 601.451111,535.196777 606.992798,540.507507 
	C610.256165,543.634766 612.575684,547.203552 612.544678,552.000305 
	C612.529724,554.310974 614.634583,555.468506 615.996033,557.003540 
	C619.699524,561.179321 620.120178,565.369751 616.949036,569.964844 
	C615.519836,572.035767 614.211853,574.088440 613.500000,576.500000 
"/>
<path fill="none" opacity="1.000000" stroke="#000000" stroke-linecap="round" stroke-linejoin="round" stroke-width="6.000000"
	d="
M444.500000,543.500000 
	C446.211395,543.365845 447.453339,543.761597 449.105927,544.837280 
	C455.589325,549.057434 460.118011,554.724609 463.500000,561.500000 
"/>
<path fill="none" opacity="1.000000" stroke="#000000" stroke-linecap="round" stroke-linejoin="round" stroke-width="6.000000"
	d="
M507.500000,556.000000 
	C500.913208,558.006287 495.271790,560.674927 494.795013,568.988220 
	C494.685272,570.901306 491.999969,572.666626 490.499969,574.500000 
"/>
<path fill="none" opacity="1.000000" stroke="#000000" stroke-linecap="round" stroke-linejoin="round" stroke-width="7.000000"
	d="
M530.000000,593.500000 
	C526.384033,600.811523 518.951050,600.701172 512.500000,602.500000 
"/>
<path fill="none" opacity="1.000000" stroke="#000000" stroke-linecap="round" stroke-linejoin="round" stroke-width="7.000000"
	d="
M435.000000,457.999969 
	C429.666656,461.666656 424.215790,465.176025 419.035248,469.047119 
	C414.446014,472.476349 409.440277,472.574585 404.532745,470.903870 
	C396.579559,468.196259 389.287537,469.943115 382.000000,473.000000 
"/>
<path fill="none" opacity="1.000000" stroke="#000000" stroke-linecap="round" stroke-linejoin="round" stroke-width="6.000000"
	d="
M393.500000,450.500000 
	C393.719604,454.135590 396.064484,456.887848 397.555237,459.973297 
	C398.880829,462.716858 399.755951,465.449585 399.500000,468.500000 
"/>
<path fill="none" opacity="1.000000" stroke="#000000" stroke-linecap="round" stroke-linejoin="round" stroke-width="6.000000"
	d="
M740.500000,658.000000 
	C739.666626,657.500000 738.770386,657.080505 738.010315,656.486816 
	C733.475769,652.944580 728.622681,651.270142 723.000000,653.750000 
"/>
<path fill="none" opacity="1.000000" stroke="#000000" stroke-linecap="round" stroke-linejoin="round" stroke-width="7.000000"
	d="
M549.500000,611.500000 
	C545.548462,613.704407 541.982666,616.873291 536.852722,616.422546 
	C534.734497,615.308716 535.040710,611.324036 531.499573,611.491150 
	C527.360535,611.686462 521.895447,610.077454 519.720459,614.118652 
	C514.869324,623.132019 505.069855,624.536560 498.000000,630.000000 
"/>
<path fill="none" opacity="1.000000" stroke="#000000" stroke-linecap="round" stroke-linejoin="round" stroke-width="6.000000"
	d="
M668.500000,492.000000 
	C677.791199,498.120117 678.629883,504.460602 675.000000,512.500000 
"/>
<path fill="none" opacity="1.000000" stroke="#000000" stroke-linecap="round" stroke-linejoin="round" stroke-width="8.000000"
	d="
M698.000000,536.500000 
	C699.880371,534.689819 701.457153,532.308044 704.025452,531.591187 
	C706.401428,530.928162 708.508606,529.128906 711.579834,530.858215 
	C715.488098,533.058899 719.797058,530.067261 724.001892,530.480530 
	C731.649902,531.232239 739.437195,529.831116 747.003357,531.988281 
	C749.815918,532.790161 752.666687,532.729248 755.500000,532.000000 
"/>
<path fill="none" opacity="1.000000" stroke="#000000" stroke-linecap="round" stroke-linejoin="round" stroke-width="8.000000"
	d="
M603.500000,428.500000 
	C602.666626,432.666656 601.640320,436.807983 601.087708,441.011536 
	C600.839661,442.898071 600.037903,443.836609 598.500000,444.500000 
"/>
<path fill="none" opacity="1.000000" stroke="#000000" stroke-linecap="round" stroke-linejoin="round" stroke-width="8.000000"
	d="
M374.500000,554.500000 
	C376.192535,554.407898 377.719910,553.405701 379.581848,554.897888 
	C381.465973,556.407959 383.659454,555.741028 384.992645,553.495667 
	C385.912079,551.947083 387.251678,551.316833 388.999664,551.503052 
	C394.154633,552.052307 399.364532,550.865784 404.500000,552.000000 
"/>
<path fill="none" opacity="1.000000" stroke="#000000" stroke-linecap="round" stroke-linejoin="round" stroke-width="7.000000"
	d="
M414.000000,424.500000 
	C411.711792,426.991730 408.293579,427.122253 405.545898,428.586121 
	C402.855255,430.019592 400.041718,431.576447 398.500000,434.500000 
"/>
<path fill="none" opacity="1.000000" stroke="#000000" stroke-linecap="round" stroke-linejoin="round" stroke-width="6.000000"
	d="
M725.000000,602.250000 
	C720.905823,603.198730 716.631958,603.639282 713.017151,606.025940 
	C711.262085,607.184692 709.385925,606.955811 707.500000,607.000000 
"/>
<path fill="none" opacity="1.000000" stroke="#000000" stroke-linecap="round" stroke-linejoin="round" stroke-width="6.000000"
	d="
M468.500000,582.000000 
	C474.099579,585.249878 478.909393,589.563232 484.017914,593.476624 
	C485.083679,594.293030 485.678162,595.160889 485.500000,596.500000 
"/>
<path fill="none" opacity="1.000000" stroke="#000000" stroke-linecap="round" stroke-linejoin="round" stroke-width="7.000000"
	d="
M369.000000,612.500000 
	C364.039124,616.208252 358.031738,614.982971 352.500000,616.000000 
"/>
<path fill="none" opacity="1.000000" stroke="#000000" stroke-linecap="round" stroke-linejoin="round" stroke-width="6.000000"
	d="
M536.500000,660.500000 
	C531.350159,663.555603 525.322388,664.382507 520.000000,667.000000 
"/>
<path fill="none" opacity="1.000000" stroke="#000000" stroke-linecap="round" stroke-linejoin="round" stroke-width="7.000000"
	d="
M516.000000,529.500000 
	C511.612549,533.937988 505.141754,534.976929 500.500000,539.000000 
"/>
<path fill="none" opacity="1.000000" stroke="#000000" stroke-linecap="round" stroke-linejoin="round" stroke-width="7.000000"
	d="
M494.000000,534.000000 
	C501.438538,538.683167 505.403717,545.806030 507.375061,554.029968 
	C508.018860,556.715637 509.762329,558.369873 510.948975,560.528076 
	C511.808472,562.091248 512.259949,563.871216 510.015991,565.030945 
	C509.086365,565.511353 508.157684,566.199219 507.529297,567.022339 
	C504.138275,571.464661 500.045288,572.660889 495.000000,570.000000 
"/>
<path fill="none" opacity="1.000000" stroke="#000000" stroke-linecap="round" stroke-linejoin="round" stroke-width="6.000000"
	d="
M737.000000,618.250000 
	C740.468506,619.451355 741.750000,622.423218 743.027832,625.488403 
	C744.231506,628.375793 745.666687,631.166687 747.000000,634.000000 
"/>
<path fill="none" opacity="1.000000" stroke="#000000" stroke-linecap="round" stroke-linejoin="round" stroke-width="7.000000"
	d="
M537.000000,316.500000 
	C532.864868,318.601685 528.388367,320.052399 524.957214,323.456879 
	C523.443542,324.958801 521.292786,325.649841 521.380005,328.503662 
	C521.428162,330.079742 519.756714,330.781067 518.006897,331.045563 
	C509.547913,332.324066 504.286682,338.099304 499.487000,344.490234 
	C498.518707,345.779541 499.268219,347.179352 499.000000,348.500000 
"/>
<path fill="none" opacity="1.000000" stroke="#000000" stroke-linecap="round" stroke-linejoin="round" stroke-width="7.000000"
	d="
M652.000000,559.500000 
	C652.105652,560.731689 652.313599,561.846313 652.801697,563.078552 
	C653.435242,564.677917 653.870422,567.655151 651.466064,568.388733 
	C646.799072,569.812744 644.594727,574.667480 640.028748,576.068359 
	C639.651855,575.860168 639.290955,575.723511 639.005127,575.493591 
	C632.614746,570.353210 633.460388,569.601013 625.571838,575.594604 
	C621.961426,578.337646 618.633301,579.550476 614.506042,577.487854 
	C610.922241,575.696777 608.027039,578.602051 607.778870,580.535828 
	C606.999146,586.610046 601.912781,589.218567 598.763550,593.584290 
	C593.598389,591.753418 588.765625,592.894958 584.518738,596.521912 
	C582.831055,597.963196 581.411194,599.741394 579.000000,600.000000 
"/>
<path fill="none" opacity="1.000000" stroke="#000000" stroke-linecap="round" stroke-linejoin="round" stroke-width="6.000000"
	d="
M720.500000,518.000000 
	C717.883545,521.196960 713.679260,522.319519 710.919556,525.428589 
	C709.788025,526.703247 708.996460,527.956116 708.500000,529.500000 
"/>
<path fill="none" opacity="1.000000" stroke="#000000" stroke-linecap="round" stroke-linejoin="round" stroke-width="6.000000"
	d="
M740.000000,641.000000 
	C734.773254,638.146057 729.787842,634.977844 726.000000,630.250000 
"/>
<path fill="none" opacity="1.000000" stroke="#000000" stroke-linecap="round" stroke-linejoin="round" stroke-width="7.000000"
	d="
M545.500000,670.000000 
	C541.197632,669.202026 537.237305,670.930664 534.143127,673.195557 
	C531.237671,675.322144 528.119690,676.548828 525.000000,678.000000 
"/>
<path fill="none" opacity="1.000000" stroke="#000000" stroke-linecap="round" stroke-linejoin="round" stroke-width="7.000000"
	d="
M563.500000,474.000000 
	C569.023682,477.028534 573.326416,481.231018 576.000000,487.000000 
"/>
<path fill="none" opacity="1.000000" stroke="#000000" stroke-linecap="round" stroke-linejoin="round" stroke-width="8.000000"
	d="
M571.000000,494.500000 
	C571.000000,497.500000 570.684448,500.541382 571.071289,503.490662 
	C571.708740,508.350800 576.086121,510.048279 579.583557,512.584717 
	C581.586609,512.199951 583.089844,510.927551 584.500000,509.500000 
"/>
<path fill="none" opacity="1.000000" stroke="#000000" stroke-linecap="round" stroke-linejoin="round" stroke-width="6.000000"
	d="
M570.000000,615.000000 
	C566.000366,619.927856 559.792603,620.577393 554.500000,623.000000 
"/>
<path fill="none" opacity="1.000000" stroke="#000000" stroke-linecap="round" stroke-linejoin="round" stroke-width="8.000000"
	d="
M730.500000,512.000000 
	C734.206604,507.773132 739.198669,508.179169 743.993286,508.580383 
	C747.610107,508.882996 751.666687,516.209839 751.000000,520.500000 
"/>
<path fill="none" opacity="1.000000" stroke="#000000" stroke-linecap="round" stroke-linejoin="round" stroke-width="6.000000"
	d="
M434.500000,396.500000 
	C435.287994,399.291199 437.172180,401.856720 436.164917,405.338440 
	C434.724091,405.697205 433.112061,406.098633 431.500000,406.500031 
"/>
<path fill="none" opacity="1.000000" stroke="#000000" stroke-linecap="round" stroke-linejoin="round" stroke-width="8.000000"
	d="
M544.000000,580.500000 
	C541.472839,578.195740 539.547668,575.246521 536.528320,573.497437 
	C532.906067,573.818665 529.991272,575.487061 526.891846,577.316772 
	C523.762939,579.163818 524.227966,581.113525 525.033203,583.488708 
	C526.167236,586.833496 529.264343,589.092224 530.122620,592.721008 
	C530.437988,594.054382 537.450073,593.900940 537.891541,592.466614 
	C539.226990,588.127136 543.305298,586.062317 545.500000,582.500000 
"/>
<path fill="none" opacity="1.000000" stroke="#000000" stroke-linecap="round" stroke-linejoin="round" stroke-width="7.000000"
	d="
M630.000000,513.000000 
	C628.856140,516.944153 628.011169,520.746887 629.130005,525.031311 
	C630.673218,530.940552 630.761902,537.051270 628.750000,543.000000 
"/>
<path fill="none" opacity="1.000000" stroke="#000000" stroke-linecap="round" stroke-linejoin="round" stroke-width="7.000000"
	d="
M558.500000,358.500000 
	C554.394531,361.256500 548.973511,361.569885 545.500000,365.500000 
"/>
<path fill="none" opacity="1.000000" stroke="#000000" stroke-linecap="round" stroke-linejoin="round" stroke-width="3.000000"
	d="
M719.000000,616.000000 
	C720.309448,620.554993 721.829651,625.020752 724.500000,629.000000 
"/>
<path fill="none" opacity="1.000000" stroke="#000000" stroke-linecap="round" stroke-linejoin="round" stroke-width="7.000000"
	d="
M434.500000,515.500000 
	C433.788391,517.770203 435.823303,518.615723 437.025909,518.883728 
	C441.107361,519.793091 444.131958,522.776367 448.000000,524.000000 
"/>
<path fill="none" opacity="1.000000" stroke="#000000" stroke-linecap="round" stroke-linejoin="round" stroke-width="6.000000"
	d="
M604.000000,517.500000 
	C604.838806,522.497253 609.540527,525.563049 610.500000,530.500000 
"/>
<path fill="none" opacity="1.000000" stroke="#000000" stroke-linecap="round" stroke-linejoin="round" stroke-width="6.000000"
	d="
M418.500000,391.000000 
	C414.333344,393.333344 410.166656,395.666656 406.000000,398.000000 
"/>
<path fill="none" opacity="1.000000" stroke="#000000" stroke-linecap="round" stroke-linejoin="round" stroke-width="8.000000"
	d="
M555.000000,622.500000 
	C554.299622,618.806824 553.619324,615.165283 550.534302,612.460876 
	C548.798523,610.939270 549.364990,608.452576 549.138000,606.484070 
	C548.776428,603.348694 545.613647,602.205566 544.618225,602.726074 
	C540.441956,604.909912 534.112305,604.766846 533.500000,611.500000 
"/>
<path fill="none" opacity="1.000000" stroke="#000000" stroke-linecap="round" stroke-linejoin="round" stroke-width="2.000000"
	d="
M605.500000,470.500000 
	C607.290649,470.198700 607.316284,471.559998 606.948975,472.479645 
	C605.344666,476.496735 606.986755,479.971497 608.500000,483.500000 
"/>
<path fill="none" opacity="1.000000" stroke="#000000" stroke-linecap="round" stroke-linejoin="round" stroke-width="7.000000"
	d="
M658.500000,475.500000 
	C652.518860,480.290497 650.721863,487.592163 647.595947,494.046478 
	C646.195374,496.938416 645.833313,500.333313 644.999939,503.500000 
"/>
<path fill="none" opacity="1.000000" stroke="#000000" stroke-linecap="round" stroke-linejoin="round" stroke-width="7.000000"
	d="
M561.500000,397.500000 
	C562.995239,401.107788 562.525757,405.027344 565.104309,408.772430 
	C567.134888,411.721558 564.483215,416.644653 561.000000,419.500000 
"/>
<path fill="none" opacity="1.000000" stroke="#000000" stroke-linecap="round" stroke-linejoin="round" stroke-width="7.000000"
	d="
M639.500000,576.500000 
	C638.811279,579.675476 638.431030,582.166016 642.385986,584.219543 
	C645.675049,585.927185 648.301147,589.329041 649.000000,593.500000 
"/>
<path fill="none" opacity="1.000000" stroke="#000000" stroke-linecap="round" stroke-linejoin="round" stroke-width="2.000000"
	d="
M552.000000,320.500000 
	C551.579712,324.962860 554.140198,328.556335 555.500000,332.500000 
"/>
<path fill="none" opacity="1.000000" stroke="#000000" stroke-linecap="round" stroke-linejoin="round" stroke-width="7.000000"
	d="
M376.000000,537.000000 
	C369.961731,528.063293 369.934174,527.991394 360.535278,531.592102 
	C359.375458,532.036377 357.677643,531.358948 356.988342,533.114136 
	C356.786041,534.891357 358.244629,536.180542 359.099579,537.431946 
	C363.423248,543.760742 363.510895,543.904846 357.500000,549.000000 
"/>
<path fill="none" opacity="1.000000" stroke="#000000" stroke-linecap="round" stroke-linejoin="round" stroke-width="6.000000"
	d="
M690.500000,441.500000 
	C687.476501,444.084137 684.048462,445.535767 680.000000,445.250000 
"/>
<path fill="none" opacity="1.000000" stroke="#000000" stroke-linecap="round" stroke-linejoin="round" stroke-width="7.000000"
	d="
M532.500000,523.500000 
	C526.281067,511.922424 521.802185,514.122803 514.995178,522.496094 
	C514.699341,522.859924 514.333374,523.166687 514.000000,523.500000 
"/>
<path fill="none" opacity="1.000000" stroke="#000000" stroke-linecap="round" stroke-linejoin="round" stroke-width="6.000000"
	d="
M397.500000,621.500000 
	C395.303711,622.232910 394.877350,624.548950 393.473907,625.974304 
	C391.716156,627.759521 390.639160,630.518860 387.500000,630.500000 
"/>
<path fill="none" opacity="1.000000" stroke="#000000" stroke-linecap="round" stroke-linejoin="round" stroke-width="5.000000"
	d="
M616.500000,513.000000 
	C619.053955,516.122498 620.669434,519.736633 622.000000,523.500000 
"/>
<path fill="none" opacity="1.000000" stroke="#000000" stroke-linecap="round" stroke-linejoin="round" stroke-width="7.000000"
	d="
M627.500000,522.500000 
	C620.225769,524.112671 620.427307,524.205078 618.860901,532.975159 
	C618.354736,535.809265 616.208557,538.350525 617.500000,541.500000 
"/>
<path fill="none" opacity="1.000000" stroke="#000000" stroke-linecap="round" stroke-linejoin="round" stroke-width="3.000000"
	d="
M693.000000,618.500000 
	C690.818054,622.203857 688.224365,625.787659 689.500000,630.500000 
"/>
<path fill="none" opacity="1.000000" stroke="#000000" stroke-linecap="round" stroke-linejoin="round" stroke-width="2.000000"
	d="
M567.500000,352.500000 
	C569.696106,355.568604 572.487732,358.339447 572.500000,362.500000 
"/>
<path fill="none" opacity="1.000000" stroke="#000000" stroke-linecap="round" stroke-linejoin="round" stroke-width="2.000000"
	d="
M582.500000,448.500000 
	C583.500000,451.833344 584.500000,455.166656 585.500000,458.500000 
"/>
<path fill="none" opacity="1.000000" stroke="#000000" stroke-linecap="round" stroke-linejoin="round" stroke-width="4.000000"
	d="
M719.000000,475.000000 
	C716.955078,477.829041 714.337891,479.894958 711.000000,481.000000 
"/>
<path fill="none" opacity="1.000000" stroke="#000000" stroke-linecap="round" stroke-linejoin="round" stroke-width="4.000000"
	d="
M747.500000,538.500000 
	C744.468201,538.164856 741.715088,538.721497 739.500000,541.000000 
"/>
<path fill="none" opacity="1.000000" stroke="#000000" stroke-linecap="round" stroke-linejoin="round" stroke-width="6.000000"
	d="
M553.000000,349.500000 
	C548.174072,351.555206 543.420593,353.743286 539.250000,357.000000 
"/>
<path fill="none" opacity="1.000000" stroke="#000000" stroke-linecap="round" stroke-linejoin="round" stroke-width="6.000000"
	d="
M642.500000,651.000000 
	C639.486145,651.958374 636.276123,652.073547 633.428772,653.888245 
	C631.884155,654.872620 630.397156,655.388062 630.500000,657.500000 
"/>
<path fill="none" opacity="1.000000" stroke="#000000" stroke-linecap="round" stroke-linejoin="round" stroke-width="8.000000"
	d="
M757.500000,554.500000 
	C760.567749,554.197754 763.504028,554.705933 764.407349,558.025208 
	C765.243958,561.099304 764.645752,564.138000 761.500000,566.000000 
"/>
<path fill="none" opacity="1.000000" stroke="#000000" stroke-linecap="round" stroke-linejoin="round" stroke-width="7.000000"
	d="
M521.500000,330.500000 
	C524.339844,332.371124 523.836853,335.536285 524.528137,338.366516 
	C521.815552,338.552856 519.614746,341.950958 516.500000,339.500000 
"/>
<path fill="none" opacity="1.000000" stroke="#000000" stroke-linecap="round" stroke-linejoin="round" stroke-width="4.000000"
	d="
M637.000000,504.000000 
	C637.210388,506.984161 635.299011,509.119598 634.000000,511.500000 
"/>
<path fill="none" opacity="1.000000" stroke="#000000" stroke-linecap="round" stroke-linejoin="round" stroke-width="2.000000"
	d="
M590.500000,527.500000 
	C590.561890,530.328186 590.469116,533.073120 587.000000,534.000000 
"/>
<path fill="none" opacity="1.000000" stroke="#000000" stroke-linecap="round" stroke-linejoin="round" stroke-width="6.000000"
	d="
M524.500000,386.000000 
	C520.089539,385.395416 516.027710,386.727875 512.000000,388.250000 
"/>
<path fill="none" opacity="1.000000" stroke="#000000" stroke-linecap="round" stroke-linejoin="round" stroke-width="2.000000"
	d="
M539.500000,362.500000 
	C541.583313,364.000000 543.666687,365.500000 545.750000,367.000000 
"/>
<path fill="none" opacity="1.000000" stroke="#000000" stroke-linecap="round" stroke-linejoin="round" stroke-width="3.000000"
	d="
M712.000000,694.000000 
	C710.633362,696.211243 708.421021,695.321533 706.500000,695.500000 
"/>
<path fill="none" opacity="1.000000" stroke="#000000" stroke-linecap="round" stroke-linejoin="round" stroke-width="2.000000"
	d="
M594.000000,437.500000 
	C596.028809,438.549377 594.971191,441.450623 597.000000,442.500000 
"/>
<path fill="none" opacity="1.000000" stroke="#000000" stroke-linecap="round" stroke-linejoin="round" stroke-width="3.000000"
	d="
M661.500000,530.000000 
	C659.669434,530.197083 657.761169,529.539551 656.010010,530.458374 
	C654.609680,536.290344 653.627625,536.761719 649.750000,533.500000 
"/>
<path fill="none" opacity="1.000000" stroke="#000000" stroke-linecap="round" stroke-linejoin="round" stroke-width="3.000000"
	d="
M640.500000,486.500000 
	C638.897339,490.059265 636.548950,491.080322 634.750000,489.000000 
"/>
</svg>