<svg version="1.1" id="Layer_1" xmlns="http://www.w3.org/2000/svg" xmlns:xlink="http://www.w3.org/1999/xlink" x="0px" y="0px"
	 width="100%" viewBox="0 0 1080 1080" enable-background="new 0 0 1080 1080" xml:space="preserve">
<path fill="none" opacity="1.000000" stroke="none" 
	d="
M522.000000,1081.000000 
	C348.020020,1081.000000 174.540039,1081.000000 1.030031,1081.000000 
	C1.030031,721.061584 1.030031,361.123138 1.030031,1.092345 
	C360.896881,1.092345 720.793762,1.092345 1080.845337,1.092345 
	C1080.845337,360.999939 1080.845337,720.999939 1080.845337,1081.000000 
	C894.789307,1081.000000 708.644653,1081.000000 522.000000,1081.000000 
M914.503357,401.033447 
	C912.652588,399.018677 911.176331,396.254425 908.889709,395.111877 
	C895.032410,388.187347 881.008301,381.594055 866.983765,375.009857 
	C865.435852,374.283173 863.495911,373.913269 861.798157,374.062958 
	C852.185120,374.910309 842.607300,376.225098 832.983032,376.850342 
	C827.595825,377.200317 822.000061,377.229370 816.746765,376.170258 
	C804.594177,373.719940 792.601013,370.919464 780.041138,370.927551 
	C618.255249,371.031769 456.469238,371.014557 294.683258,370.968170 
	C278.688721,370.963593 263.343048,373.933472 248.499435,379.794403 
	C243.864456,381.624481 239.265839,384.246704 234.454163,384.800842 
	C218.650223,386.621033 202.771713,387.902771 186.891541,388.916443 
	C174.807602,389.687866 165.439072,396.550903 165.903366,410.093933 
	C166.319870,422.242767 166.037430,434.417480 165.942764,446.579865 
	C165.927994,448.479156 165.624390,450.533844 164.848984,452.241852 
	C161.774033,459.015228 157.986191,465.497864 155.325714,472.420013 
	C148.737274,489.562164 143.490799,507.129028 143.063400,525.672913 
	C142.729462,540.160950 142.919952,554.663574 143.043991,569.158203 
	C143.080383,573.411072 143.309265,577.730103 144.094818,581.897217 
	C147.974564,602.477966 154.334702,622.229370 164.210205,640.791199 
	C165.301941,642.843201 165.882660,645.406677 165.913879,647.743408 
	C166.078552,660.070923 165.816406,672.405212 166.057556,684.730225 
	C166.197845,691.900513 168.363312,698.232727 176.243561,701.720520 
	C178.736191,703.911804 180.952713,706.584961 183.774475,708.201904 
	C191.496994,712.627502 199.394028,716.771179 207.378128,720.709961 
	C213.000320,723.483521 218.705460,726.374390 224.702103,728.003662 
	C228.732117,729.098572 233.345825,728.238892 237.681427,727.975098 
	C247.032867,727.406067 256.373322,726.656494 265.718445,725.983582 
	C267.234100,725.874451 268.776672,725.547668 270.262848,725.713989 
	C282.587677,727.093445 294.899994,729.799866 307.220154,729.821899 
	C465.510529,730.105164 623.801575,730.012268 782.092468,730.003418 
	C795.716797,730.002686 809.053589,727.994080 822.209351,724.438049 
	C831.095764,722.035950 839.675598,718.577759 849.274536,718.823486 
	C857.097107,719.023743 864.966125,717.712830 872.803650,716.958679 
	C885.999390,715.688965 899.162720,713.942871 912.384705,713.127441 
	C923.378418,712.449402 930.986084,705.290222 931.002380,694.174194 
	C931.030884,674.679443 931.051697,655.184448 930.957825,635.690125 
	C930.946289,633.295959 930.812073,630.558472 929.675171,628.592834 
	C927.892578,625.510742 928.391541,622.948730 929.499390,619.943054 
	C935.369629,604.016479 938.687683,587.424500 939.778076,570.606628 
	C940.600159,557.928589 940.199280,545.018433 938.770386,532.389526 
	C937.302185,519.414062 934.934143,506.344269 931.102173,493.887177 
	C927.216431,481.255096 924.095215,468.928009 924.866272,455.554993 
	C925.565308,443.431854 925.200745,431.232758 924.943909,419.074738 
	C924.789429,411.763214 923.101501,404.955658 915.151001,401.881073 
	C915.151001,401.881073 914.985168,401.727448 914.503357,401.033447 
z"/>
<path fill="#01F5F9" opacity="1.000000" stroke="none" 
	d="
M915.091858,401.994629 
	C923.101501,404.955658 924.789429,411.763214 924.943909,419.074738 
	C925.200745,431.232758 925.565308,443.431854 924.866272,455.554993 
	C924.095215,468.928009 927.216431,481.255096 931.102173,493.887177 
	C934.934143,506.344269 937.302185,519.414062 938.770386,532.389526 
	C940.199280,545.018433 940.600159,557.928589 939.778076,570.606628 
	C938.687683,587.424500 935.369629,604.016479 929.499390,619.943054 
	C928.391541,622.948730 927.892578,625.510742 929.675171,628.592834 
	C930.812073,630.558472 930.946289,633.295959 930.957825,635.690125 
	C931.051697,655.184448 931.030884,674.679443 931.002380,694.174194 
	C930.986084,705.290222 923.378418,712.449402 912.384705,713.127441 
	C899.162720,713.942871 885.999390,715.688965 872.803650,716.958679 
	C864.966125,717.712830 857.097107,719.023743 849.274536,718.823486 
	C839.675598,718.577759 831.095764,722.035950 822.209351,724.438049 
	C809.053589,727.994080 795.716797,730.002686 782.092468,730.003418 
	C623.801575,730.012268 465.510529,730.105164 307.220154,729.821899 
	C294.899994,729.799866 282.587677,727.093445 270.262848,725.713989 
	C268.776672,725.547668 267.234100,725.874451 265.718445,725.983582 
	C256.373322,726.656494 247.032867,727.406067 237.681427,727.975098 
	C233.345825,728.238892 228.732117,729.098572 224.702103,728.003662 
	C218.705460,726.374390 213.000320,723.483521 207.378128,720.709961 
	C199.394028,716.771179 191.496994,712.627502 183.774475,708.201904 
	C180.952713,706.584961 178.736191,703.911804 176.183380,701.022461 
	C175.761047,698.513855 175.398880,696.703308 175.263428,694.854126 
	C175.490128,694.815430 175.949265,694.782837 176.098969,695.100098 
	C178.888977,697.627625 181.244766,700.374512 184.220490,701.952026 
	C195.092041,707.715088 206.100937,713.234375 217.217804,718.508911 
	C220.111191,719.881653 223.580948,720.593384 226.792282,720.613831 
	C231.761200,720.645447 236.726746,719.632202 241.709457,719.399841 
	C251.954025,718.922180 262.236755,718.041748 272.452118,718.493896 
	C283.211273,718.970215 293.908600,721.874756 304.635651,721.890564 
	C462.249237,722.122925 619.863403,722.126343 777.476990,721.883057 
	C788.364929,721.866272 799.327148,719.916260 810.109497,718.033447 
	C818.082336,716.641113 825.701355,712.833679 833.682556,711.949890 
	C858.660217,709.183838 883.735962,707.304077 908.771545,705.057312 
	C917.179382,704.302795 922.051697,699.019226 922.064880,690.593811 
	C922.095154,671.267029 922.113281,651.939880 922.022888,632.613464 
	C922.012207,630.339783 921.168518,628.082031 920.934509,625.794006 
	C920.685425,623.358582 919.956482,620.633972 920.712219,618.483826 
	C937.599060,570.439819 936.860962,522.796265 918.049805,475.421356 
	C916.858398,472.420715 916.203552,469.010590 916.166565,465.781067 
	C915.979736,449.455322 916.022766,433.125977 916.114136,416.798615 
	C916.142212,411.772736 915.225281,407.201538 911.861755,403.159912 
	C913.100220,402.566895 914.096069,402.280762 915.091858,401.994629 
z"/>
<path fill="#F502FC" opacity="1.000000" stroke="none" 
	d="
M175.036728,694.892761 
	C175.398880,696.703308 175.761047,698.513855 176.029419,700.714478 
	C168.363312,698.232727 166.197845,691.900513 166.057556,684.730225 
	C165.816406,672.405212 166.078552,660.070923 165.913879,647.743408 
	C165.882660,645.406677 165.301941,642.843201 164.210205,640.791199 
	C154.334702,622.229370 147.974564,602.477966 144.094818,581.897217 
	C143.309265,577.730103 143.080383,573.411072 143.043991,569.158203 
	C142.919952,554.663574 142.729462,540.160950 143.063400,525.672913 
	C143.490799,507.129028 148.737274,489.562164 155.325714,472.420013 
	C157.986191,465.497864 161.774033,459.015228 164.848984,452.241852 
	C165.624390,450.533844 165.927994,448.479156 165.942764,446.579865 
	C166.037430,434.417480 166.319870,422.242767 165.903366,410.093933 
	C165.439072,396.550903 174.807602,389.687866 186.891541,388.916443 
	C202.771713,387.902771 218.650223,386.621033 234.454163,384.800842 
	C239.265839,384.246704 243.864456,381.624481 248.499435,379.794403 
	C263.343048,373.933472 278.688721,370.963593 294.683258,370.968170 
	C456.469238,371.014557 618.255249,371.031769 780.041138,370.927551 
	C792.601013,370.919464 804.594177,373.719940 816.746765,376.170258 
	C822.000061,377.229370 827.595825,377.200317 832.983032,376.850342 
	C842.607300,376.225098 852.185120,374.910309 861.798157,374.062958 
	C863.495911,373.913269 865.435852,374.283173 866.983765,375.009857 
	C881.008301,381.594055 895.032410,388.187347 908.889709,395.111877 
	C911.176331,396.254425 912.652588,399.018677 914.294312,401.379456 
	C902.369873,395.924957 890.764954,389.881805 878.873901,384.467255 
	C875.159790,382.776062 870.672974,382.781738 866.057373,381.905029 
	C857.615356,382.493713 849.664551,383.323792 841.693542,383.840668 
	C834.918701,384.279968 827.720032,385.910706 821.413025,384.284058 
	C806.682556,380.485016 791.827454,378.115936 776.752930,378.100647 
	C619.650574,377.941101 462.548035,378.012177 305.445526,377.990234 
	C285.016632,377.987396 265.534607,382.316528 246.689865,390.057159 
	C243.070190,391.543945 239.088745,392.499695 235.191986,392.899780 
	C220.624908,394.395477 206.014603,395.464722 191.437988,396.874481 
	C178.529633,398.122833 174.553070,402.429840 174.380386,415.362335 
	C174.224701,427.022186 174.429581,438.686920 174.266373,450.346588 
	C174.232803,452.744873 173.792313,455.412933 172.665237,457.480011 
	C147.055740,504.447662 143.582397,553.872559 155.962921,605.498169 
	C157.894714,610.992249 159.871017,616.098022 161.857117,621.152283 
	C161.866943,621.100769 161.762589,621.111145 161.764496,621.434814 
	C162.677567,624.743469 162.981125,628.116821 164.600052,630.649292 
	C174.042252,645.419800 175.399139,661.677124 174.135422,678.521240 
	C173.986267,680.509277 174.010071,682.524841 174.138504,684.515747 
	C174.361984,687.979675 174.729553,691.434265 175.036728,694.892761 
z"/>
<path fill="#1BC4DF" opacity="1.000000" stroke="none" 
	d="
M866.539917,382.010651 
	C870.672974,382.781738 875.159790,382.776062 878.873901,384.467255 
	C890.764954,389.881805 902.369873,395.924957 914.535156,401.726471 
	C914.985168,401.727448 915.151001,401.881073 915.121460,401.937866 
	C914.096069,402.280762 913.100220,402.566895 911.514404,403.075592 
	C898.333618,396.895996 885.765442,390.448639 873.129211,384.137421 
	C871.087891,383.117920 868.743958,382.704315 866.539917,382.010651 
z"/>
<path fill="#181818" opacity="1.000000" stroke="none" 
	d="
M866.057373,381.905029 
	C868.743958,382.704315 871.087891,383.117920 873.129211,384.137421 
	C885.765442,390.448639 898.333618,396.895996 911.271729,403.382446 
	C915.225281,407.201538 916.142212,411.772736 916.114136,416.798615 
	C916.022766,433.125977 915.979736,449.455322 916.166565,465.781067 
	C916.203552,469.010590 916.858398,472.420715 918.049805,475.421356 
	C936.860962,522.796265 937.599060,570.439819 920.712219,618.483826 
	C919.956482,620.633972 920.685425,623.358582 920.934509,625.794006 
	C921.168518,628.082031 922.012207,630.339783 922.022888,632.613464 
	C922.113281,651.939880 922.095154,671.267029 922.064880,690.593811 
	C922.051697,699.019226 917.179382,704.302795 908.771545,705.057312 
	C883.735962,707.304077 858.660217,709.183838 833.682556,711.949890 
	C825.701355,712.833679 818.082336,716.641113 810.109497,718.033447 
	C799.327148,719.916260 788.364929,721.866272 777.476990,721.883057 
	C619.863403,722.126343 462.249237,722.122925 304.635651,721.890564 
	C293.908600,721.874756 283.211273,718.970215 272.452118,718.493896 
	C262.236755,718.041748 251.954025,718.922180 241.709457,719.399841 
	C236.726746,719.632202 231.761200,720.645447 226.792282,720.613831 
	C223.580948,720.593384 220.111191,719.881653 217.217804,718.508911 
	C206.100937,713.234375 195.092041,707.715088 184.220490,701.952026 
	C181.244766,700.374512 178.888977,697.627625 176.091858,694.702637 
	C175.572327,691.213257 174.922409,688.441406 174.896988,685.663757 
	C174.790558,674.037415 174.889999,662.409302 174.862564,650.781982 
	C174.858688,649.141174 175.018250,647.282104 174.340698,645.896423 
	C170.271484,637.574280 165.979767,629.360962 161.762589,621.111145 
	C161.762589,621.111145 161.866943,621.100769 161.746185,620.754272 
	C159.752777,615.308533 157.880112,610.209229 156.007431,605.109924 
	C143.582397,553.872559 147.055740,504.447662 172.665237,457.480011 
	C173.792313,455.412933 174.232803,452.744873 174.266373,450.346588 
	C174.429581,438.686920 174.224701,427.022186 174.380386,415.362335 
	C174.553070,402.429840 178.529633,398.122833 191.437988,396.874481 
	C206.014603,395.464722 220.624908,394.395477 235.191986,392.899780 
	C239.088745,392.499695 243.070190,391.543945 246.689865,390.057159 
	C265.534607,382.316528 285.016632,377.987396 305.445526,377.990234 
	C462.548035,378.012177 619.650574,377.941101 776.752930,378.100647 
	C791.827454,378.115936 806.682556,380.485016 821.413025,384.284058 
	C827.720032,385.910706 834.918701,384.279968 841.693542,383.840668 
	C849.664551,383.323792 857.615356,382.493713 866.057373,381.905029 
M338.358551,401.212280 
	C332.555481,401.730713 326.726440,402.858917 320.955872,402.613373 
	C313.719574,402.305481 310.050598,405.776031 306.786835,411.694427 
	C301.235107,421.761871 294.873627,431.382782 288.852386,441.191345 
	C288.379486,441.073730 287.906586,440.956116 287.433685,440.838531 
	C287.433685,436.429474 287.760071,431.984650 287.282532,427.627930 
	C287.074188,425.727417 285.650787,423.208435 284.039703,422.336182 
	C274.091827,416.950226 263.975525,411.866821 253.807709,406.903107 
	C251.836273,405.940674 249.342163,405.404633 247.171066,405.596863 
	C228.928055,407.212402 210.709503,409.102844 192.469391,410.753510 
	C189.306259,411.039734 188.117325,412.237701 188.181610,415.412872 
	C188.333389,422.907196 188.227249,430.406708 188.227234,437.904144 
	C188.227219,519.542847 188.255981,601.181580 188.146332,682.820068 
	C188.140671,687.031006 189.313187,689.417053 193.291214,691.234131 
	C203.119080,695.723450 212.679794,700.794434 222.422897,705.475403 
	C224.126068,706.293579 226.228989,706.820190 228.088837,706.683960 
	C240.042114,705.808228 251.980621,704.727417 263.920959,703.679443 
	C271.653809,703.000671 279.381470,702.263306 287.685242,701.499451 
	C287.685242,679.157593 287.685242,657.129578 287.685242,635.101501 
	C290.105804,636.939941 291.562653,639.018188 292.873077,641.185059 
	C300.358124,653.562134 307.744904,665.999329 315.338318,678.309265 
	C316.485535,680.169067 318.291840,681.946533 320.216827,682.947876 
	C330.095886,688.086914 340.043060,693.110474 350.131683,697.820557 
	C352.673340,699.007141 355.862946,699.475342 358.685516,699.278748 
	C373.466248,698.249512 388.228485,696.943604 402.989227,695.643921 
	C410.358398,694.994995 417.710602,694.154114 425.869171,693.318176 
	C424.711670,691.132446 424.038544,689.679810 423.209595,688.322388 
	C395.381805,642.752747 367.600922,597.154236 339.598389,551.692139 
	C336.943817,547.382507 336.904327,544.379944 339.670776,540.091003 
	C365.106659,500.656494 390.303925,461.068024 415.544525,421.507721 
	C416.666870,419.748657 417.537201,417.828766 418.701263,415.654449 
	C407.863251,410.117310 397.598022,404.637238 387.095703,399.657104 
	C384.118256,398.245239 380.401215,397.575409 377.105957,397.796448 
	C364.482605,398.643311 351.892822,399.991150 338.358551,401.212280 
M760.945007,704.194824 
	C809.998962,699.939575 859.052979,695.684326 908.467957,691.397766 
	C908.467957,671.870422 908.528748,652.903198 908.334167,633.938538 
	C908.320862,632.643921 906.655334,630.862244 905.312683,630.165771 
	C895.448425,625.048340 885.519409,620.047363 875.489014,615.265137 
	C873.369995,614.254883 870.712097,613.779968 868.365051,613.945496 
	C858.069580,614.671814 847.798828,615.742554 837.515869,616.652222 
	C827.595703,617.529968 817.671570,618.363464 807.593262,619.229797 
	C807.593262,607.543945 807.593262,596.341736 807.593262,584.977661 
	C832.895203,582.625793 857.845215,580.306641 882.965759,577.971619 
	C882.965759,558.697388 883.038391,540.046021 882.823303,521.398010 
	C882.806702,519.959167 881.064636,517.980835 879.615723,517.210815 
	C871.684998,512.996399 863.366394,509.472351 855.629272,504.945068 
	C848.878479,500.994904 842.138672,500.432922 834.625916,501.516815 
	C825.665100,502.809631 816.578186,503.228668 807.461670,504.033661 
	C807.461670,496.507233 807.461670,489.568604 807.461670,482.246399 
	C839.071777,479.427094 870.480896,476.625763 902.190491,473.797607 
	C902.190491,454.100555 902.251892,434.957001 902.048218,415.816315 
	C902.035034,414.577454 900.210938,412.914948 898.838379,412.204651 
	C889.242004,407.238159 879.609314,402.328674 869.830933,397.735931 
	C867.279358,396.537506 864.113770,395.836792 861.327393,396.069702 
	C821.487061,399.400757 781.662354,402.918915 741.836548,406.422028 
	C730.765869,407.395782 719.703796,408.467468 708.137817,409.540649 
	C708.137817,411.853577 708.137878,413.812531 708.137878,415.771454 
	C708.137878,504.268494 708.180847,592.765564 708.018372,681.262329 
	C708.009705,685.981323 709.440430,688.369324 713.688354,690.197571 
	C720.251648,693.022522 726.841614,696.022278 732.848816,699.845703 
	C741.437866,705.312256 750.408081,706.234070 760.945007,704.194824 
z"/>
<path fill="#3A8DC3" opacity="1.000000" stroke="none" 
	d="
M161.764496,621.434814 
	C165.979767,629.360962 170.271484,637.574280 174.340698,645.896423 
	C175.018250,647.282104 174.858688,649.141174 174.862564,650.781982 
	C174.889999,662.409302 174.790558,674.037415 174.896988,685.663757 
	C174.922409,688.441406 175.572327,691.213257 175.942139,694.385315 
	C175.949265,694.782837 175.490128,694.815430 175.263428,694.854126 
	C174.729553,691.434265 174.361984,687.979675 174.138504,684.515747 
	C174.010071,682.524841 173.986267,680.509277 174.135422,678.521240 
	C175.399139,661.677124 174.042252,645.419800 164.600052,630.649292 
	C162.981125,628.116821 162.677567,624.743469 161.764496,621.434814 
z"/>
<path fill="#3A8DC3" opacity="1.000000" stroke="none" 
	d="
M155.962921,605.498169 
	C157.880112,610.209229 159.752777,615.308533 161.736374,620.805786 
	C159.871017,616.098022 157.894714,610.992249 155.962921,605.498169 
z"/>
<path fill="#FAFAFA" opacity="1.000000" stroke="none" 
	d="
M338.824524,401.182159 
	C351.892822,399.991150 364.482605,398.643311 377.105957,397.796448 
	C380.401215,397.575409 384.118256,398.245239 387.095703,399.657104 
	C397.598022,404.637238 407.863251,410.117310 418.701263,415.654449 
	C417.537201,417.828766 416.666870,419.748657 415.544525,421.507721 
	C390.303925,461.068024 365.106659,500.656494 339.670776,540.091003 
	C336.904327,544.379944 336.943817,547.382507 339.598389,551.692139 
	C367.600922,597.154236 395.381805,642.752747 423.209595,688.322388 
	C424.038544,689.679810 424.711670,691.132446 425.869171,693.318176 
	C417.710602,694.154114 410.358398,694.994995 402.989227,695.643921 
	C388.228485,696.943604 373.466248,698.249512 358.685516,699.278748 
	C355.862946,699.475342 352.673340,699.007141 350.131683,697.820557 
	C340.043060,693.110474 330.095886,688.086914 320.216827,682.947876 
	C318.291840,681.946533 316.485535,680.169067 315.338318,678.309265 
	C307.744904,665.999329 300.358124,653.562134 292.873077,641.185059 
	C291.562653,639.018188 290.105804,636.939941 287.685242,635.101501 
	C287.685242,657.129578 287.685242,679.157593 287.685242,701.499451 
	C279.381470,702.263306 271.653809,703.000671 263.920959,703.679443 
	C251.980621,704.727417 240.042114,705.808228 228.088837,706.683960 
	C226.228989,706.820190 224.126068,706.293579 222.422897,705.475403 
	C212.679794,700.794434 203.119080,695.723450 193.291214,691.234131 
	C189.313187,689.417053 188.140671,687.031006 188.146332,682.820068 
	C188.255981,601.181580 188.227219,519.542847 188.227234,437.904144 
	C188.227249,430.406708 188.333389,422.907196 188.181610,415.412872 
	C188.117325,412.237701 189.306259,411.039734 192.469391,410.753510 
	C210.709503,409.102844 228.928055,407.212402 247.171066,405.596863 
	C249.342163,405.404633 251.836273,405.940674 253.807709,406.903107 
	C263.975525,411.866821 274.091827,416.950226 284.039703,422.336182 
	C285.650787,423.208435 287.074188,425.727417 287.282532,427.627930 
	C287.760071,431.984650 287.433685,436.429474 287.433685,440.838531 
	C287.906586,440.956116 288.379486,441.073730 288.852386,441.191345 
	C294.873627,431.382782 301.235107,421.761871 306.786835,411.694427 
	C310.050598,405.776031 313.719574,402.305481 320.955872,402.613373 
	C326.726440,402.858917 332.555481,401.730713 338.824524,401.182159 
M292.793427,442.329193 
	C278.069092,466.360107 263.344727,490.391022 248.620361,514.421936 
	C248.125961,514.302185 247.631546,514.182434 247.137146,514.062683 
	C247.137146,479.415192 247.137146,444.767639 247.137146,409.673340 
	C229.158615,411.237640 212.096329,412.726990 195.032867,414.202911 
	C191.544907,414.504578 191.998825,417.095795 191.998627,419.389618 
	C191.991486,506.210266 192.020462,593.030945 191.909225,679.851440 
	C191.903748,684.118408 193.471924,684.840881 197.233826,684.509277 
	C208.514069,683.514832 219.822708,682.847595 231.113327,681.963806 
	C236.371826,681.552185 241.614304,680.935730 247.145203,680.384094 
	C247.145203,678.641968 247.145065,677.163086 247.145233,675.684265 
	C247.147522,654.854126 247.911438,633.986206 246.882675,613.207153 
	C246.204147,599.502441 255.459518,591.640869 261.169586,580.871521 
	C262.608551,583.208252 263.585632,584.750061 264.519287,586.317749 
	C281.706299,615.176636 298.928070,644.014954 316.014648,672.933228 
	C317.906281,676.134766 319.795135,677.610352 323.834900,677.218323 
	C341.733887,675.481445 359.672882,674.158081 377.593384,672.637817 
	C379.001923,672.518372 380.379791,672.037415 382.465088,671.568665 
	C381.311371,669.335266 380.533203,667.566345 379.533936,665.932739 
	C352.365265,621.516724 325.222687,577.084473 297.894135,532.766968 
	C295.701294,529.210876 295.950562,526.794189 298.091217,523.457642 
	C322.445221,485.496643 346.667145,447.450928 370.890930,409.406525 
	C372.160004,407.413361 373.128387,405.228729 374.490356,402.653809 
	C372.819275,402.489502 372.010590,402.283600 371.225555,402.351410 
	C353.140320,403.913391 335.052368,405.450500 316.984253,407.192535 
	C315.498901,407.335724 313.637421,408.582825 312.820892,409.869324 
	C306.137909,420.399048 299.661621,431.059937 292.793427,442.329193 
z"/>
<path fill="#FAFAFA" opacity="1.000000" stroke="none" 
	d="
M760.484741,704.230469 
	C750.408081,706.234070 741.437866,705.312256 732.848816,699.845703 
	C726.841614,696.022278 720.251648,693.022522 713.688354,690.197571 
	C709.440430,688.369324 708.009705,685.981323 708.018372,681.262329 
	C708.180847,592.765564 708.137878,504.268494 708.137878,415.771454 
	C708.137878,413.812531 708.137817,411.853577 708.137817,409.540649 
	C719.703796,408.467468 730.765869,407.395782 741.836548,406.422028 
	C781.662354,402.918915 821.487061,399.400757 861.327393,396.069702 
	C864.113770,395.836792 867.279358,396.537506 869.830933,397.735931 
	C879.609314,402.328674 889.242004,407.238159 898.838379,412.204651 
	C900.210938,412.914948 902.035034,414.577454 902.048218,415.816315 
	C902.251892,434.957001 902.190491,454.100555 902.190491,473.797607 
	C870.480896,476.625763 839.071777,479.427094 807.461670,482.246399 
	C807.461670,489.568604 807.461670,496.507233 807.461670,504.033661 
	C816.578186,503.228668 825.665100,502.809631 834.625916,501.516815 
	C842.138672,500.432922 848.878479,500.994904 855.629272,504.945068 
	C863.366394,509.472351 871.684998,512.996399 879.615723,517.210815 
	C881.064636,517.980835 882.806702,519.959167 882.823303,521.398010 
	C883.038391,540.046021 882.965759,558.697388 882.965759,577.971619 
	C857.845215,580.306641 832.895203,582.625793 807.593262,584.977661 
	C807.593262,596.341736 807.593262,607.543945 807.593262,619.229797 
	C817.671570,618.363464 827.595703,617.529968 837.515869,616.652222 
	C847.798828,615.742554 858.069580,614.671814 868.365051,613.945496 
	C870.712097,613.779968 873.369995,614.254883 875.489014,615.265137 
	C885.519409,620.047363 895.448425,625.048340 905.312683,630.165771 
	C906.655334,630.862244 908.320862,632.643921 908.334167,633.938538 
	C908.528748,652.903198 908.467957,671.870422 908.467957,691.397766 
	C859.052979,695.684326 809.998962,699.939575 760.484741,704.230469 
M786.323364,459.003296 
	C811.472290,456.734497 836.621277,454.465668 861.661865,452.206665 
	C861.661865,434.442841 861.661865,417.229889 861.661865,399.656738 
	C811.575623,404.047668 761.909851,408.401764 712.247192,412.755554 
	C712.247192,503.383301 712.247192,593.270081 712.247192,683.634949 
	C764.404541,679.003052 816.204224,674.402893 867.909424,669.811157 
	C867.909424,652.132996 867.909424,635.046631 867.909424,617.575867 
	C834.198547,620.595154 800.821167,623.584595 767.386841,626.579102 
	C767.386841,605.108948 767.386841,584.366333 767.386841,563.761047 
	C767.992798,563.482239 768.276550,563.254089 768.578674,563.226562 
	C791.458923,561.138428 814.332336,558.964050 837.230103,557.088074 
	C841.310791,556.753784 842.974426,555.869202 842.853516,551.307617 
	C842.504700,538.155762 842.730347,524.988586 842.730347,511.827423 
	C842.730347,509.582123 842.730347,507.336823 842.730347,504.564423 
	C817.143799,506.884186 792.364502,509.130768 767.346252,511.398987 
	C767.346252,494.197937 767.346252,477.630829 767.346252,460.590179 
	C773.513000,460.073395 779.456116,459.575348 786.323364,459.003296 
z"/>
<path fill="#181818" opacity="1.000000" stroke="none" 
	d="
M292.957977,442.005096 
	C299.661621,431.059937 306.137909,420.399048 312.820892,409.869324 
	C313.637421,408.582825 315.498901,407.335724 316.984253,407.192535 
	C335.052368,405.450500 353.140320,403.913391 371.225555,402.351410 
	C372.010590,402.283600 372.819275,402.489502 374.490356,402.653809 
	C373.128387,405.228729 372.160004,407.413361 370.890930,409.406525 
	C346.667145,447.450928 322.445221,485.496643 298.091217,523.457642 
	C295.950562,526.794189 295.701294,529.210876 297.894135,532.766968 
	C325.222687,577.084473 352.365265,621.516724 379.533936,665.932739 
	C380.533203,667.566345 381.311371,669.335266 382.465088,671.568665 
	C380.379791,672.037415 379.001923,672.518372 377.593384,672.637817 
	C359.672882,674.158081 341.733887,675.481445 323.834900,677.218323 
	C319.795135,677.610352 317.906281,676.134766 316.014648,672.933228 
	C298.928070,644.014954 281.706299,615.176636 264.519287,586.317749 
	C263.585632,584.750061 262.608551,583.208252 261.169586,580.871521 
	C255.459518,591.640869 246.204147,599.502441 246.882675,613.207153 
	C247.911438,633.986206 247.147522,654.854126 247.145233,675.684265 
	C247.145065,677.163086 247.145203,678.641968 247.145203,680.384094 
	C241.614304,680.935730 236.371826,681.552185 231.113327,681.963806 
	C219.822708,682.847595 208.514069,683.514832 197.233826,684.509277 
	C193.471924,684.840881 191.903748,684.118408 191.909225,679.851440 
	C192.020462,593.030945 191.991486,506.210266 191.998627,419.389618 
	C191.998825,417.095795 191.544907,414.504578 195.032867,414.202911 
	C212.096329,412.726990 229.158615,411.237640 247.137146,409.673340 
	C247.137146,444.767639 247.137146,479.415192 247.137146,514.062683 
	C247.631546,514.182434 248.125961,514.302185 248.620361,514.421936 
	C263.344727,490.391022 278.069092,466.360107 292.957977,442.005096 
z"/>
<path fill="#191919" opacity="1.000000" stroke="none" 
	d="
M785.861267,459.040283 
	C779.456116,459.575348 773.513000,460.073395 767.346252,460.590179 
	C767.346252,477.630829 767.346252,494.197937 767.346252,511.398987 
	C792.364502,509.130768 817.143799,506.884186 842.730347,504.564423 
	C842.730347,507.336823 842.730347,509.582123 842.730347,511.827423 
	C842.730347,524.988586 842.504700,538.155762 842.853516,551.307617 
	C842.974426,555.869202 841.310791,556.753784 837.230103,557.088074 
	C814.332336,558.964050 791.458923,561.138428 768.578674,563.226562 
	C768.276550,563.254089 767.992798,563.482239 767.386841,563.761047 
	C767.386841,584.366333 767.386841,605.108948 767.386841,626.579102 
	C800.821167,623.584595 834.198547,620.595154 867.909424,617.575867 
	C867.909424,635.046631 867.909424,652.132996 867.909424,669.811157 
	C816.204224,674.402893 764.404541,679.003052 712.247192,683.634949 
	C712.247192,593.270081 712.247192,503.383301 712.247192,412.755554 
	C761.909851,408.401764 811.575623,404.047668 861.661865,399.656738 
	C861.661865,417.229889 861.661865,434.442841 861.661865,452.206665 
	C836.621277,454.465668 811.472290,456.734497 785.861267,459.040283 
z"/>
</svg>