<svg version="1.1" id="Layer_1" xmlns="http://www.w3.org/2000/svg" xmlns:xlink="http://www.w3.org/1999/xlink" x="0px" y="0px"
	 width="100%" viewBox="0 0 1080 1080" enable-background="new 0 0 1080 1080" xml:space="preserve">
<path fill="none" opacity="1.000000" stroke="none" 
	d="
M606.000000,1081.000000 
	C404.023254,1081.000000 202.546509,1081.000000 1.034878,1081.000000 
	C1.034878,721.064819 1.034878,361.129578 1.034878,1.097191 
	C360.893646,1.097191 720.787354,1.097191 1080.840576,1.097191 
	C1080.840576,360.999939 1080.840576,720.999939 1080.840576,1081.000000 
	C922.795837,1081.000000 764.647888,1081.000000 606.000000,1081.000000 
M445.992279,248.986511 
	C445.992279,248.986511 445.975494,248.923782 445.246643,248.962738 
	C444.471771,250.306488 443.696869,251.650223 442.992310,252.992020 
	C442.992310,252.992020 442.988922,252.921738 442.290833,253.040665 
	C439.832397,256.692963 437.373932,260.345276 435.009308,264.026398 
	C435.009308,264.026398 435.038879,263.932800 434.680878,264.138641 
	C434.423065,264.283661 434.269867,264.502014 433.790405,265.366547 
	C430.528961,270.264435 427.267487,275.162354 423.366241,280.398529 
	C421.609222,284.598969 419.852203,288.799408 417.748138,293.646088 
	C415.743500,298.490204 413.848511,303.385345 411.639984,308.134644 
	C411.207550,309.064697 409.621338,309.803101 408.463379,309.991486 
	C403.295166,310.832336 398.089264,311.441803 392.318726,311.814453 
	C390.621735,311.651215 388.890442,311.185120 387.233185,311.372803 
	C374.279541,312.839630 361.316559,314.260376 348.402893,316.033691 
	C335.399689,317.819366 321.738861,317.609833 310.372284,325.424072 
	C305.375000,328.859528 301.379608,333.752319 296.992065,337.989838 
	C296.992065,337.989838 296.974915,337.929108 296.248474,338.024200 
	C295.473572,339.347260 294.698669,340.670319 293.991425,341.989471 
	C293.991425,341.989471 293.979675,341.922760 293.271149,342.045227 
	C292.822906,343.029938 292.374664,344.014648 291.993927,344.988892 
	C291.993927,344.988892 291.977448,344.922577 291.225189,345.016510 
	C290.461823,347.016602 289.698456,349.016693 289.002502,350.996521 
	C289.002502,350.996521 288.982086,350.929169 288.433868,351.210480 
	C288.324280,351.797119 288.214691,352.383759 287.916077,353.721130 
	C286.865234,357.759216 285.814362,361.797272 284.207275,366.405792 
	C282.360352,373.038086 282.795227,379.598938 284.967346,386.726013 
	C287.795776,399.410919 293.901154,409.968536 304.786865,417.475952 
	C311.154205,421.867279 317.358429,426.502991 323.829315,430.733002 
	C327.031219,432.826080 327.813385,434.790192 325.206268,437.785095 
	C324.685699,438.383087 324.485321,439.259796 323.790833,440.612061 
	C321.842651,444.044891 319.894501,447.477722 317.392212,451.331299 
	C306.988007,471.280243 299.249878,492.234894 294.461151,514.198425 
	C291.580292,527.411438 291.191711,540.889404 298.141235,552.985107 
	C308.019775,570.178711 323.158600,579.663940 343.322327,579.955322 
	C358.811340,580.179199 374.306213,579.989319 389.798401,580.013672 
	C391.710144,580.016724 393.621643,580.206055 395.778595,580.322266 
	C395.630920,581.584106 395.626129,582.232117 395.473480,582.843140 
	C383.118011,632.290649 370.629974,681.705444 358.432739,731.191956 
	C351.712891,758.455811 357.858734,782.595825 378.039001,802.401001 
	C392.135681,816.235718 409.986115,821.832947 429.300812,821.899048 
	C501.596680,822.146545 573.893921,822.016907 646.190552,821.958557 
	C651.149475,821.954529 656.109131,821.391602 661.066345,821.057739 
	C679.837341,819.793396 695.579041,812.119629 708.179932,798.247986 
	C718.285278,787.123535 724.371338,773.927368 725.913635,758.987305 
	C727.812744,740.591980 722.189819,723.295410 716.971252,705.157410 
	C715.000732,697.461975 713.030212,689.766602 711.019653,681.240662 
	C710.956299,680.411316 711.012634,679.551880 710.812195,678.757080 
	C704.983948,655.644409 699.105042,632.544495 693.292358,609.427917 
	C690.886902,599.861328 688.614441,590.261292 686.116943,580.000000 
	C688.662109,580.000000 690.460815,580.000000 692.259521,580.000000 
	C707.909912,580.000000 723.562744,580.175476 739.209900,579.950562 
	C754.757080,579.727051 767.701599,573.703064 777.946777,561.823120 
	C779.254578,560.306580 781.824890,559.261292 783.889648,559.114746 
	C797.888245,558.121582 811.965210,557.967529 825.905396,556.490295 
	C840.437256,554.950378 852.489075,548.226746 861.581177,535.667725 
	C862.082947,534.776245 862.584656,533.884827 863.002380,533.000793 
	C863.002380,533.000793 863.010315,533.084778 863.608093,532.745178 
	C864.714600,530.804932 865.821106,528.864685 867.020630,526.632690 
	C867.020630,526.632690 866.990479,526.328064 867.608215,525.896301 
	C868.373413,523.600037 869.138611,521.303711 870.010925,518.649353 
	C870.010925,518.649353 870.001648,518.275818 870.601562,517.747375 
	C873.692139,508.145966 874.184448,498.496490 871.943604,488.578278 
	C868.211914,472.061279 857.689514,460.807617 844.202759,451.742645 
	C843.298462,451.134827 841.939331,451.203857 840.142578,450.831207 
	C833.771057,445.876740 827.399536,440.922241 820.977295,435.260742 
	C817.209900,432.123413 813.574341,428.806366 809.628906,425.911743 
	C806.986450,423.973175 803.904114,422.634216 800.583008,420.508392 
	C797.761658,418.520142 795.038818,416.369385 792.094177,414.584503 
	C788.369812,412.327026 786.094482,409.513214 787.626831,404.536835 
	C787.944946,403.046448 788.358765,401.568970 788.561829,400.063080 
	C789.032715,396.570435 789.401733,393.064056 789.947205,388.714508 
	C790.618347,386.335632 791.586975,383.986694 791.830811,381.564789 
	C791.947021,380.411530 790.683716,379.119324 790.034363,377.209412 
	C789.842407,369.231628 790.011658,361.225159 789.381714,353.282135 
	C788.147583,337.722107 784.634644,322.476135 779.297485,307.932831 
	C773.621277,292.465729 766.113831,277.768463 756.762634,263.956360 
	C742.448486,242.813919 724.728271,225.256699 703.659424,211.156357 
	C686.415466,199.615906 667.585022,191.490158 647.296570,186.443588 
	C632.204529,182.689590 617.182373,178.684189 601.601257,178.525848 
	C585.566650,178.362930 569.454102,178.766479 553.804199,182.968445 
	C543.305725,185.787277 532.578430,188.209793 522.579285,192.328812 
	C506.144165,199.099075 490.537598,207.683533 476.582092,218.881348 
	C472.776794,221.934708 469.463959,225.601852 465.992462,228.992065 
	C465.992462,228.992065 465.989014,228.924667 465.241608,228.986176 
	C461.803986,232.317993 458.366364,235.649811 454.991333,238.989334 
	C454.991333,238.989334 454.973907,238.928772 454.275055,239.017517 
	C452.491211,241.342773 450.707397,243.668015 448.993835,245.991837 
	C448.993835,245.991837 448.990997,245.921585 448.299286,246.019684 
	C447.508636,247.008759 446.717987,247.997818 445.992279,248.986511 
z"/>
<path fill="#036D03" opacity="1.000000" stroke="none" 
	d="
M717.113892,705.976868 
	C722.189819,723.295410 727.812744,740.591980 725.913635,758.987305 
	C724.371338,773.927368 718.285278,787.123535 708.179932,798.247986 
	C695.579041,812.119629 679.837341,819.793396 661.066345,821.057739 
	C656.109131,821.391602 651.149475,821.954529 646.190552,821.958557 
	C573.893921,822.016907 501.596680,822.146545 429.300812,821.899048 
	C409.986115,821.832947 392.135681,816.235718 378.039001,802.401001 
	C357.858734,782.595825 351.712891,758.455811 358.432739,731.191956 
	C370.629974,681.705444 383.118011,632.290649 395.473480,582.843140 
	C395.626129,582.232117 395.630920,581.584106 395.778595,580.322266 
	C393.621643,580.206055 391.710144,580.016724 389.798401,580.013672 
	C374.306213,579.989319 358.811340,580.179199 343.322327,579.955322 
	C323.158600,579.663940 308.019775,570.178711 298.141235,552.985107 
	C291.191711,540.889404 291.580292,527.411438 294.461151,514.198425 
	C299.249878,492.234894 306.988007,471.280243 317.755615,451.354858 
	C320.442474,448.081085 322.788483,444.798798 325.031647,441.447693 
	C325.161255,441.254059 324.454742,440.500763 324.137329,440.007965 
	C324.485321,439.259796 324.685699,438.383087 325.206268,437.785095 
	C327.813385,434.790192 327.031219,432.826080 323.829315,430.733002 
	C317.358429,426.502991 311.154205,421.867279 304.786865,417.475952 
	C293.901154,409.968536 287.795776,399.410919 285.128937,386.108826 
	C285.218445,380.806610 285.167236,376.121124 285.064148,371.436798 
	C285.022980,369.568359 284.867126,367.702423 284.763489,365.835358 
	C285.814362,361.797272 286.865234,357.759216 288.231506,353.153564 
	C288.691986,352.033722 288.837036,351.481445 288.982086,350.929169 
	C288.982086,350.929169 289.002502,350.996521 289.267700,350.827393 
	C290.347717,348.746368 291.162567,346.834473 291.977417,344.922577 
	C291.977448,344.922577 291.993927,344.988892 292.286743,344.896973 
	C293.046265,343.844299 293.512970,342.883514 293.979675,341.922760 
	C293.979675,341.922760 293.991425,341.989471 294.303711,341.924988 
	C295.402283,340.550018 296.188599,339.239563 296.974915,337.929108 
	C296.974915,337.929108 296.992065,337.989838 297.308960,337.959473 
	C298.207214,337.618866 298.913025,337.430115 299.351624,336.980621 
	C310.272736,325.787628 323.934753,321.260681 339.163971,319.801270 
	C356.020691,318.185791 372.816223,315.924072 389.626038,313.843903 
	C390.769348,313.702423 391.809082,312.723999 392.896973,312.134827 
	C398.089264,311.441803 403.295166,310.832336 408.463379,309.991486 
	C409.621338,309.803101 411.207550,309.064697 411.639984,308.134644 
	C413.848511,303.385345 415.743500,298.490204 418.230469,293.550751 
	C418.742065,294.772736 419.073792,296.170227 418.749603,297.393921 
	C417.112762,303.572388 415.148285,309.668335 413.672241,315.881958 
	C413.320923,317.360870 413.944733,320.231567 414.908691,320.651459 
	C418.169678,322.071747 421.784760,322.678955 425.670013,323.703888 
	C429.071655,311.008636 432.375183,298.988861 435.369110,286.892456 
	C435.597778,285.968536 433.882477,284.019592 432.642365,283.387238 
	C429.908875,281.993347 426.901581,281.136353 424.006042,280.060272 
	C427.267487,275.162354 430.528961,270.264435 434.142120,264.937195 
	C434.641541,264.283966 434.823212,264.092285 435.038879,263.932800 
	C435.038879,263.932800 435.009308,264.026398 435.283447,263.903076 
	C438.034698,260.160400 440.511810,256.541077 442.988922,252.921738 
	C442.988922,252.921738 442.992310,252.992020 443.304871,252.928986 
	C444.403442,251.551910 445.189484,250.237854 445.975494,248.923798 
	C445.975494,248.923782 445.992279,248.986511 446.298920,248.947357 
	C447.400726,247.912674 448.195862,246.917130 448.990997,245.921585 
	C448.990997,245.921585 448.993835,245.991837 449.302063,245.932068 
	C451.398193,243.557785 453.186035,241.243286 454.973907,238.928772 
	C454.973907,238.928772 454.991333,238.989334 455.313690,238.965149 
	C459.087036,235.602219 462.538025,232.263443 465.989014,228.924683 
	C465.989014,228.924667 465.992462,228.992065 466.308838,228.952057 
	C468.666473,227.497070 470.790527,226.187027 472.736755,224.651611 
	C511.577362,194.009445 555.662170,179.560242 605.124512,181.886292 
	C623.645020,182.757248 641.639038,186.122452 659.219421,192.399384 
	C691.667297,203.984695 719.059937,222.666580 741.469910,248.740692 
	C773.431274,285.927826 788.510742,329.324402 788.516479,378.149597 
	C785.711548,377.623444 783.317017,376.792664 780.869263,376.582397 
	C779.808655,376.491272 777.874390,377.462982 777.632507,378.318207 
	C774.217651,390.396667 771.026001,402.538269 767.641663,415.182373 
	C772.243591,416.430786 776.291931,417.529022 780.518860,418.675690 
	C782.221130,413.128052 783.718018,408.249786 785.468750,403.542114 
	C786.171265,404.111359 786.619995,404.509949 787.068665,404.908508 
	C786.094482,409.513214 788.369812,412.327026 792.094177,414.584503 
	C795.038818,416.369385 797.761658,418.520142 800.874268,421.099731 
	C807.786316,426.449982 814.407104,431.208893 821.027954,435.967773 
	C827.399536,440.922241 833.771057,445.876740 840.585327,451.220978 
	C842.984558,453.361633 844.808594,455.294220 846.919373,456.833557 
	C859.520020,466.022858 868.584106,477.732849 870.464722,493.475586 
	C871.436218,501.607849 870.226074,510.000702 870.001648,518.275818 
	C870.001648,518.275818 870.010925,518.649353 869.671753,519.032715 
	C868.551880,521.720093 867.771179,524.024048 866.990479,526.328064 
	C866.990479,526.328064 867.020630,526.632690 866.643005,526.872314 
	C865.180359,529.102844 864.095337,531.093811 863.010315,533.084778 
	C863.010315,533.084778 863.002380,533.000793 862.786438,533.088257 
	C862.059509,534.108398 861.548523,535.041016 861.037598,535.973633 
	C852.489075,548.226746 840.437256,554.950378 825.905396,556.490295 
	C811.965210,557.967529 797.888245,558.121582 783.889648,559.114746 
	C781.824890,559.261292 779.254578,560.306580 777.946777,561.823120 
	C767.701599,573.703064 754.757080,579.727051 739.209900,579.950562 
	C723.562744,580.175476 707.909912,580.000000 692.259521,580.000000 
	C690.460815,580.000000 688.662109,580.000000 686.116943,580.000000 
	C688.614441,590.261292 690.886902,599.861328 693.292358,609.427917 
	C699.105042,632.544495 704.983948,655.644409 710.812195,678.757080 
	C711.012634,679.551880 710.956299,680.411316 710.835449,681.942078 
	C712.419739,690.658325 714.188171,698.673157 715.956604,706.687988 
	C716.342346,706.450928 716.728088,706.213867 717.113892,705.976868 
M743.162598,400.549500 
	C742.015381,405.174927 740.868164,409.800323 739.637634,414.761536 
	C744.236633,415.996796 748.307861,417.090302 752.681091,418.264923 
	C756.579773,403.743042 760.296631,389.953156 763.981812,376.154816 
	C767.069641,364.593048 767.053650,364.586456 754.963623,362.683441 
	C754.655579,362.634949 754.317627,362.776062 753.555664,362.899994 
	C750.817688,372.420074 748.027344,382.122589 745.142578,390.820984 
	C746.814575,376.636719 745.597717,362.562500 743.529114,347.758575 
	C743.044312,346.156525 742.559448,344.554474 741.969177,342.174438 
	C740.192200,335.722321 738.415222,329.270203 737.491333,322.817596 
	C752.450012,326.260712 757.428406,332.230896 757.565002,346.620117 
	C757.574402,347.605591 758.520569,349.164185 759.374023,349.457153 
	C762.760803,350.619781 766.283936,351.385284 769.937622,352.345551 
	C770.382507,350.792542 770.746277,349.881134 770.899170,348.935638 
	C773.814453,330.906311 762.190186,314.547363 743.353394,309.985138 
	C738.280273,308.756470 733.280212,307.226196 728.040710,305.152313 
	C712.117065,274.499908 688.256470,252.050262 656.868469,237.996048 
	C620.009338,221.492142 582.145142,220.096466 544.097656,233.555115 
	C533.363464,237.352142 523.379456,243.269699 512.235229,248.042892 
	C510.320251,247.615250 508.382477,247.269852 506.494202,246.745972 
	C497.439117,244.233673 488.475433,241.395187 478.856659,243.986282 
	C466.960419,247.190903 456.608765,257.566925 455.475830,268.266571 
	C459.468903,269.297607 463.535248,270.347565 467.450012,271.358398 
	C474.435638,257.393433 484.041962,253.699051 497.812805,259.548584 
	C494.434235,262.981903 491.055695,266.415222 487.037994,270.063385 
	C482.408905,270.621582 481.265076,274.380127 479.335205,278.320007 
	C478.145935,279.687958 476.795959,280.948059 475.794006,282.441650 
	C470.103607,290.923889 464.496399,299.461945 458.566101,307.187500 
	C460.373749,299.838348 462.181366,292.489197 464.083679,284.755188 
	C459.515808,283.529144 455.444763,282.436432 450.978699,281.237701 
	C446.214203,299.065033 441.649658,316.144226 436.953003,333.717682 
	C441.502655,334.981567 445.566528,336.110504 450.030853,337.350708 
	C451.568878,332.073517 452.947937,327.341644 454.962982,322.928680 
	C458.729370,324.734802 462.495758,326.540955 466.289642,329.127289 
	C464.590363,335.939423 462.891052,342.751526 460.859802,350.894409 
	C470.007507,345.801941 477.807678,341.459656 486.113922,337.644958 
	C490.549316,339.843811 494.984711,342.042694 498.967285,344.776031 
	C488.687317,350.783905 478.407379,356.791779 467.068329,363.418579 
	C490.105042,371.990631 511.721954,380.633698 533.764099,388.005219 
	C546.406433,392.233124 556.912292,385.378235 560.661072,372.577423 
	C561.310303,370.360443 562.118408,368.189941 563.603027,366.157166 
	C567.463379,367.415192 571.323792,368.673218 575.095764,370.717682 
	C573.127625,377.937622 571.432495,385.262756 566.119629,391.021332 
	C555.498291,402.533752 540.520081,405.428680 523.390137,399.014343 
	C503.133606,391.429291 482.958099,383.627533 462.690247,376.073303 
	C452.212433,372.168060 446.274811,365.215057 446.243073,353.690796 
	C446.239716,352.476349 445.433960,350.518066 444.528778,350.184418 
	C441.046936,348.900818 437.373138,348.137909 433.277405,347.049744 
	C432.703461,351.422638 432.252869,354.855591 431.090607,358.145752 
	C425.216644,353.852325 418.672363,353.085022 411.700043,354.380219 
	C409.742615,354.743805 407.743256,354.883118 405.762238,355.117828 
	C383.307953,357.778748 360.849457,360.405273 338.402313,363.125275 
	C333.821960,363.680328 330.007538,365.829865 328.509644,370.419006 
	C326.995789,375.056915 327.950134,379.380951 331.950836,382.564789 
	C335.591736,385.462341 339.205811,388.438385 343.101349,390.964081 
	C372.993652,410.344849 405.292145,424.900818 438.327667,437.889954 
	C477.087463,453.129822 516.796936,465.533752 556.884766,476.736938 
	C559.792419,477.549561 563.170898,477.741791 566.122925,477.163330 
	C590.613647,472.364136 615.065796,467.365204 639.508362,462.324066 
	C654.656372,459.199921 669.767517,455.897369 685.597046,452.531525 
	C695.282776,454.126648 704.934082,455.984467 714.661865,457.258026 
	C731.039001,459.402191 745.492249,448.439575 748.652893,431.425232 
	C745.545593,430.568451 742.419861,429.365845 739.195801,428.975616 
	C737.791626,428.805725 735.537781,429.895447 734.774658,431.108276 
	C729.093994,440.137085 721.365784,443.872101 710.637024,442.181183 
	C688.942200,438.761902 667.182434,435.672882 645.613220,431.583862 
	C638.477783,430.231171 631.034241,427.372070 625.145508,423.204041 
	C611.411804,413.483459 608.517395,399.192932 615.781677,380.805664 
	C619.743774,381.577545 623.705933,382.349457 627.770081,383.765045 
	C627.685425,384.975525 627.600769,386.186005 627.483826,387.858795 
	C629.959778,386.695892 631.957397,385.757660 634.753662,384.951172 
	C640.681885,386.386627 646.610107,387.822113 652.037903,389.761017 
	C643.651001,394.684601 635.264160,399.608215 626.580811,404.705902 
	C631.008240,412.157410 636.926636,416.388824 644.664856,417.708221 
	C667.106812,421.534668 689.573669,425.219513 712.054993,428.808258 
	C719.107422,429.934052 721.948853,427.737427 723.899841,420.644043 
	C725.881042,413.440918 727.935669,406.258026 730.807495,399.093597 
	C734.929260,399.307495 739.051025,399.521362 743.162598,400.549500 
M555.500000,579.864441 
	C511.354462,579.836670 467.208923,579.819214 423.063416,579.758179 
	C420.112335,579.754089 417.883820,579.653992 416.906219,583.610046 
	C404.204895,635.009460 391.034637,686.294006 378.531952,737.741028 
	C370.346619,771.422607 393.862274,800.888611 428.418976,800.926208 
	C503.384277,801.007812 578.350037,801.039795 653.314636,800.799866 
	C659.995789,800.778503 667.074341,799.670654 673.276306,797.275452 
	C697.758545,787.820251 709.632202,762.428955 702.869568,735.361572 
	C690.319885,685.132080 677.676025,634.925903 665.257996,584.664001 
	C664.307251,580.815613 662.801453,579.682007 658.951294,579.700745 
	C624.801392,579.866760 590.650574,579.836609 555.500000,579.864441 
M362.500000,559.133911 
	C403.294434,559.133667 444.089081,559.079895 484.883087,559.208618 
	C489.406219,559.222839 491.557617,558.313049 492.423126,553.210571 
	C494.574158,540.529297 500.285126,529.255127 508.306549,519.183899 
	C510.609070,516.293030 512.924683,513.412598 515.658997,509.996765 
	C513.242065,509.080200 511.739410,508.457275 510.202454,507.935303 
	C483.894928,499.001526 457.557220,490.155273 431.303101,481.067413 
	C427.770935,479.844788 426.655640,480.955414 425.475525,483.980225 
	C408.974487,526.276245 359.210541,542.313538 321.100098,517.692200 
	C319.767487,516.831299 318.368866,516.072571 316.973602,515.250061 
	C306.800629,535.561951 320.539795,558.684387 342.518585,559.084167 
	C348.843964,559.199280 355.172760,559.122986 362.500000,559.133911 
M700.673584,507.937164 
	C721.018677,510.047546 741.322021,513.053772 761.721130,514.005066 
	C780.433533,514.877686 799.250183,513.573914 818.018860,513.139099 
	C822.848083,513.027161 826.394348,510.610382 827.690918,505.899078 
	C829.087585,500.824219 827.855835,496.310669 823.443604,493.012451 
	C815.709167,487.230774 808.031250,481.368469 800.158386,475.781281 
	C798.753296,474.784088 796.426453,474.393372 794.685547,474.683685 
	C787.792297,475.833435 780.961121,477.357117 774.109863,478.756439 
	C745.235168,484.653931 716.357727,490.538361 687.490112,496.470306 
	C680.451050,497.916748 673.445374,499.525208 666.424316,501.059174 
	C666.434814,501.463196 666.445374,501.867188 666.455872,502.271210 
	C677.566956,504.126984 688.678101,505.982727 700.673584,507.937164 
M524.562439,531.082153 
	C518.228516,539.325500 513.284363,548.176880 511.927124,559.088562 
	C551.572449,559.088562 590.716919,559.088562 631.541687,559.088562 
	C628.299561,551.618103 625.570740,544.955688 622.447815,538.483337 
	C621.891113,537.329407 619.775940,536.656982 618.252380,536.280884 
	C597.594727,531.182678 576.518372,527.376709 556.376404,520.732666 
	C542.525391,516.163696 533.524475,519.875793 525.360535,530.170532 
	C525.257324,530.300659 525.139221,530.419067 524.562439,531.082153 
M382.969208,503.562866 
	C395.641266,496.603149 404.146637,486.357056 408.099335,472.697784 
	C387.457123,463.041138 367.330994,453.625885 346.860107,444.049377 
	C345.947510,445.401917 344.755127,446.802460 343.962738,448.401306 
	C337.394104,461.655273 330.963898,474.978210 324.338806,488.203613 
	C322.595947,491.682739 323.446106,493.979156 326.315125,496.299408 
	C343.465271,510.169037 362.055786,512.984375 382.969208,503.562866 
M689.902649,549.704773 
	C675.882935,547.292664 661.863220,544.880615 647.134827,542.346680 
	C648.233032,546.978699 649.367188,550.763672 649.980896,554.631226 
	C650.596252,558.509094 652.545532,559.897339 656.398254,559.882019 
	C681.697449,559.781616 706.997620,559.903137 732.296387,559.756897 
	C737.153198,559.728821 742.004944,558.834595 746.859070,558.339905 
	C746.847229,557.866455 746.835388,557.392944 746.823608,556.919495 
	C728.142456,554.562988 709.461304,552.206543 689.902649,549.704773 
z"/>
<path fill="#31A504" opacity="1.000000" stroke="none" 
	d="
M788.905273,378.096649 
	C788.510742,329.324402 773.431274,285.927826 741.469910,248.740692 
	C719.059937,222.666580 691.667297,203.984695 659.219421,192.399384 
	C641.639038,186.122452 623.645020,182.757248 605.124512,181.886292 
	C555.662170,179.560242 511.577362,194.009445 472.736755,224.651611 
	C470.790527,226.187027 468.666473,227.497070 466.275177,228.949677 
	C469.463959,225.601852 472.776794,221.934708 476.582092,218.881348 
	C490.537598,207.683533 506.144165,199.099075 522.579285,192.328812 
	C532.578430,188.209793 543.305725,185.787277 553.804199,182.968445 
	C569.454102,178.766479 585.566650,178.362930 601.601257,178.525848 
	C617.182373,178.684189 632.204529,182.689590 647.296570,186.443588 
	C667.585022,191.490158 686.415466,199.615906 703.659424,211.156357 
	C724.728271,225.256699 742.448486,242.813919 756.762634,263.956360 
	C766.113831,277.768463 773.621277,292.465729 779.297485,307.932831 
	C784.634644,322.476135 788.147583,337.722107 789.381714,353.282135 
	C790.011658,361.225159 789.842407,369.231628 789.765991,377.663269 
	C789.300232,378.110291 789.102722,378.103455 788.905273,378.096649 
z"/>
<path fill="#9E0501" opacity="1.000000" stroke="none" 
	d="
M788.516479,378.149597 
	C789.102722,378.103455 789.300232,378.110291 789.771484,378.003571 
	C790.683716,379.119324 791.947021,380.411530 791.830811,381.564789 
	C791.586975,383.986694 790.618347,386.335632 789.583130,389.226837 
	C787.884277,394.283264 786.549622,398.827362 785.214966,403.371490 
	C783.718018,408.249786 782.221130,413.128052 780.518860,418.675690 
	C776.291931,417.529022 772.243591,416.430786 767.641663,415.182373 
	C771.026001,402.538269 774.217651,390.396667 777.632507,378.318207 
	C777.874390,377.462982 779.808655,376.491272 780.869263,376.582397 
	C783.317017,376.792664 785.711548,377.623444 788.516479,378.149597 
z"/>
<path fill="#9E0501" opacity="1.000000" stroke="none" 
	d="
M423.686157,280.229401 
	C426.901581,281.136353 429.908875,281.993347 432.642365,283.387238 
	C433.882477,284.019592 435.597778,285.968536 435.369110,286.892456 
	C432.375183,298.988861 429.071655,311.008636 425.670013,323.703888 
	C421.784760,322.678955 418.169678,322.071747 414.908691,320.651459 
	C413.944733,320.231567 413.320923,317.360870 413.672241,315.881958 
	C415.148285,309.668335 417.112762,303.572388 418.749603,297.393921 
	C419.073792,296.170227 418.742065,294.772736 418.403992,293.227661 
	C419.852203,288.799408 421.609222,284.598969 423.686157,280.229401 
z"/>
<path fill="#31A504" opacity="1.000000" stroke="none" 
	d="
M392.607849,311.974670 
	C391.809082,312.723999 390.769348,313.702423 389.626038,313.843903 
	C372.816223,315.924072 356.020691,318.185791 339.163971,319.801270 
	C323.934753,321.260681 310.272736,325.787628 299.351624,336.980621 
	C298.913025,337.430115 298.207214,337.618866 297.277588,337.956299 
	C301.379608,333.752319 305.375000,328.859528 310.372284,325.424072 
	C321.738861,317.609833 335.399689,317.819366 348.402893,316.033691 
	C361.316559,314.260376 374.279541,312.839630 387.233185,311.372803 
	C388.890442,311.185120 390.621735,311.651215 392.607849,311.974670 
z"/>
<path fill="#31A504" opacity="1.000000" stroke="none" 
	d="
M870.301636,518.011597 
	C870.226074,510.000702 871.436218,501.607849 870.464722,493.475586 
	C868.584106,477.732849 859.520020,466.022858 846.919373,456.833557 
	C844.808594,455.294220 842.984558,453.361633 840.909912,451.284424 
	C841.939331,451.203857 843.298462,451.134827 844.202759,451.742645 
	C857.689514,460.807617 868.211914,472.061279 871.943604,488.578278 
	C874.184448,498.496490 873.692139,508.145966 870.301636,518.011597 
z"/>
<path fill="#31A504" opacity="1.000000" stroke="none" 
	d="
M821.002625,435.614258 
	C814.407104,431.208893 807.786316,426.449982 801.092041,421.359009 
	C803.904114,422.634216 806.986450,423.973175 809.628906,425.911743 
	C813.574341,428.806366 817.209900,432.123413 821.002625,435.614258 
z"/>
<path fill="#3BA205" opacity="1.000000" stroke="none" 
	d="
M717.042603,705.567139 
	C716.728088,706.213867 716.342346,706.450928 715.956604,706.687988 
	C714.188171,698.673157 712.419739,690.658325 710.855469,682.357300 
	C713.030212,689.766602 715.000732,697.461975 717.042603,705.567139 
z"/>
<path fill="#3BA205" opacity="1.000000" stroke="none" 
	d="
M785.468750,403.542114 
	C786.549622,398.827362 787.884277,394.283264 789.515503,389.651215 
	C789.401733,393.064056 789.032715,396.570435 788.561829,400.063080 
	C788.358765,401.568970 787.944946,403.046448 787.347778,404.722656 
	C786.619995,404.509949 786.171265,404.111359 785.468750,403.542114 
z"/>
<path fill="#076F04" opacity="1.000000" stroke="none" 
	d="
M284.485413,366.120575 
	C284.867126,367.702423 285.022980,369.568359 285.064148,371.436798 
	C285.167236,376.121124 285.218445,380.806610 285.057312,385.800751 
	C282.795227,379.598938 282.360352,373.038086 284.485413,366.120575 
z"/>
<path fill="#31A504" opacity="1.000000" stroke="none" 
	d="
M465.615295,228.955429 
	C462.538025,232.263443 459.087036,235.602219 455.282410,238.961304 
	C458.366364,235.649811 461.803986,232.317993 465.615295,228.955429 
z"/>
<path fill="#076F04" opacity="1.000000" stroke="none" 
	d="
M323.964081,440.309998 
	C324.454742,440.500763 325.161255,441.254059 325.031647,441.447693 
	C322.788483,444.798798 320.442474,448.081085 318.032654,451.144470 
	C319.894501,447.477722 321.842651,444.044891 323.964081,440.309998 
z"/>
<path fill="#31A504" opacity="1.000000" stroke="none" 
	d="
M442.639893,252.981201 
	C440.511810,256.541077 438.034698,260.160400 435.236511,263.888672 
	C437.373932,260.345276 439.832397,256.692963 442.639893,252.981201 
z"/>
<path fill="#31A504" opacity="1.000000" stroke="none" 
	d="
M454.624481,238.973145 
	C453.186035,241.243286 451.398193,243.557785 449.266937,245.932770 
	C450.707397,243.668015 452.491211,241.342773 454.624481,238.973145 
z"/>
<path fill="#31A504" opacity="1.000000" stroke="none" 
	d="
M867.299316,526.112183 
	C867.771179,524.024048 868.551880,521.720093 869.618164,519.211792 
	C869.138611,521.303711 868.373413,523.600037 867.299316,526.112183 
z"/>
<path fill="#31A504" opacity="1.000000" stroke="none" 
	d="
M863.309204,532.914978 
	C864.095337,531.093811 865.180359,529.102844 866.596497,527.018127 
	C865.821106,528.864685 864.714600,530.804932 863.309204,532.914978 
z"/>
<path fill="#31A504" opacity="1.000000" stroke="none" 
	d="
M291.601318,344.969543 
	C291.162567,346.834473 290.347717,348.746368 289.233978,350.837524 
	C289.698456,349.016693 290.461823,347.016602 291.601318,344.969543 
z"/>
<path fill="#31A504" opacity="1.000000" stroke="none" 
	d="
M296.611694,337.976654 
	C296.188599,339.239563 295.402283,340.550018 294.269897,341.926941 
	C294.698669,340.670319 295.473572,339.347260 296.611694,337.976654 
z"/>
<path fill="#31A504" opacity="1.000000" stroke="none" 
	d="
M445.611084,248.943268 
	C445.189484,250.237854 444.403442,251.551910 443.269684,252.929962 
	C443.696869,251.650223 444.471771,250.306488 445.611084,248.943268 
z"/>
<path fill="#31A504" opacity="1.000000" stroke="none" 
	d="
M448.645142,245.970642 
	C448.195862,246.917130 447.400726,247.912674 446.266418,248.947540 
	C446.717987,247.997818 447.508636,247.008759 448.645142,245.970642 
z"/>
<path fill="#31A504" opacity="1.000000" stroke="none" 
	d="
M861.309387,535.820679 
	C861.548523,535.041016 862.059509,534.108398 862.828491,533.084534 
	C862.584656,533.884827 862.082947,534.776245 861.309387,535.820679 
z"/>
<path fill="#31A504" opacity="1.000000" stroke="none" 
	d="
M293.625427,341.984009 
	C293.512970,342.883514 293.046265,343.844299 292.252991,344.902191 
	C292.374664,344.014648 292.822906,343.029938 293.625427,341.984009 
z"/>
<path fill="#31A504" opacity="1.000000" stroke="none" 
	d="
M288.707977,351.069824 
	C288.837036,351.481445 288.691986,352.033722 288.326050,352.778198 
	C288.214691,352.383759 288.324280,351.797119 288.707977,351.069824 
z"/>
<path fill="#31A504" opacity="1.000000" stroke="none" 
	d="
M434.859863,264.035706 
	C434.823212,264.092285 434.641541,264.283966 434.357544,264.650757 
	C434.269867,264.502014 434.423065,264.283661 434.859863,264.035706 
z"/>
<path fill="#D7BF6C" opacity="1.000000" stroke="none" 
	d="
M556.000000,579.864380 
	C590.650574,579.836609 624.801392,579.866760 658.951294,579.700745 
	C662.801453,579.682007 664.307251,580.815613 665.257996,584.664001 
	C677.676025,634.925903 690.319885,685.132080 702.869568,735.361572 
	C709.632202,762.428955 697.758545,787.820251 673.276306,797.275452 
	C667.074341,799.670654 659.995789,800.778503 653.314636,800.799866 
	C578.350037,801.039795 503.384277,801.007812 428.418976,800.926208 
	C393.862274,800.888611 370.346619,771.422607 378.531952,737.741028 
	C391.034637,686.294006 404.204895,635.009460 416.906219,583.610046 
	C417.883820,579.653992 420.112335,579.754089 423.063416,579.758179 
	C467.208923,579.819214 511.354462,579.836670 556.000000,579.864380 
M573.289795,673.782593 
	C578.335327,666.833374 580.904541,659.030029 581.098511,650.479370 
	C581.223450,644.970581 577.601929,640.867126 572.254395,640.129700 
	C567.551758,639.481201 562.824524,642.832764 561.546997,647.874634 
	C561.100159,649.638184 561.068726,651.502441 560.737854,653.300598 
	C559.021118,662.630127 551.285034,669.545593 542.138489,669.970398 
	C532.497986,670.418274 524.028015,664.357605 521.593933,655.127563 
	C521.004578,652.892822 520.952332,650.520935 520.436096,648.261658 
	C519.206970,642.883240 515.077026,639.692383 510.099884,640.117798 
	C504.735229,640.576233 500.997559,644.512085 500.908508,650.105957 
	C500.765594,659.082520 503.598114,667.149719 509.021729,674.242004 
	C525.099548,695.266479 556.627075,695.583435 573.289795,673.782593 
M499.882416,624.118774 
	C500.123108,623.156738 500.498993,622.206055 500.581146,621.230652 
	C500.939728,616.973877 499.944275,613.337585 495.765533,611.230286 
	C491.452087,609.055054 487.318176,609.529419 483.695251,612.520081 
	C480.203766,615.402222 479.982819,619.379578 481.184692,623.443115 
	C482.377899,627.477356 485.720062,629.176025 489.435181,629.642334 
	C493.618042,630.167480 497.245667,628.667786 499.882416,624.118774 
M581.957336,615.733276 
	C581.717712,616.692505 581.338379,617.640564 581.261047,618.612732 
	C580.742859,625.126343 585.349976,630.094360 591.612854,629.845154 
	C597.839966,629.597290 601.845459,624.823853 601.228516,618.441284 
	C600.807373,614.084229 598.281128,611.499878 594.244995,610.409912 
	C589.207886,609.049622 585.156006,610.618347 581.957336,615.733276 
z"/>
<path fill="#38A705" opacity="1.000000" stroke="none" 
	d="
M684.895203,452.674927 
	C669.767517,455.897369 654.656372,459.199921 639.508362,462.324066 
	C615.065796,467.365204 590.613647,472.364136 566.122925,477.163330 
	C563.170898,477.741791 559.792419,477.549561 556.884766,476.736938 
	C516.796936,465.533752 477.087463,453.129822 438.327667,437.889954 
	C405.292145,424.900818 372.993652,410.344849 343.101349,390.964081 
	C339.205811,388.438385 335.591736,385.462341 331.950836,382.564789 
	C327.950134,379.380951 326.995789,375.056915 328.509644,370.419006 
	C330.007538,365.829865 333.821960,363.680328 338.402313,363.125275 
	C360.849457,360.405273 383.307953,357.778748 405.762238,355.117828 
	C407.743256,354.883118 409.742615,354.743805 411.700043,354.380219 
	C418.672363,353.085022 425.216644,353.852325 431.527313,358.612366 
	C432.805542,374.103882 440.540100,383.434662 454.767761,388.349701 
	C473.761108,394.911133 492.648712,401.831604 511.320862,409.254181 
	C528.456177,416.065887 545.400085,419.348663 563.237183,411.121643 
	C577.351746,414.913605 591.122192,418.545380 605.151978,422.382446 
	C615.010986,435.530914 627.771057,442.848724 643.765930,445.218903 
	C657.541504,447.260254 671.190308,450.156616 684.895203,452.674927 
z"/>
<path fill="#39A605" opacity="1.000000" stroke="none" 
	d="
M736.638184,322.818085 
	C738.415222,329.270203 740.192200,335.722321 741.773560,342.807983 
	C725.351135,352.838257 709.124451,362.234955 692.470520,371.879028 
	C690.090454,367.724854 688.062317,364.184906 685.796875,360.230774 
	C700.209961,351.849640 714.206238,343.710876 729.202454,334.990662 
	C726.651855,334.049225 725.347961,333.447418 723.980957,333.080994 
	C691.339172,324.332245 658.664612,315.703949 626.073669,306.770325 
	C621.574219,305.536987 620.298401,306.874603 619.279114,310.914581 
	C615.775513,324.801056 612.145508,338.663147 608.143127,352.412140 
	C606.786011,357.074066 607.919983,358.719727 612.499451,359.910645 
	C623.965149,362.892212 629.827942,372.238770 627.668030,383.121368 
	C623.705933,382.349457 619.743774,381.577545 615.302185,380.418579 
	C613.537170,374.777161 610.597351,371.836823 605.611450,372.230438 
	C604.063843,372.352631 602.742126,375.337280 600.940552,376.881897 
	C596.664368,375.753815 592.764709,374.755280 588.864258,373.380432 
	C589.151428,371.419159 589.439453,369.834198 589.715027,368.317322 
	C582.298157,364.728302 579.521851,365.062592 575.184143,369.931274 
	C571.323792,368.673218 567.463379,367.415192 563.250000,365.710266 
	C566.779480,355.294098 576.168213,350.394806 586.996216,353.002716 
	C594.100647,354.713837 593.464966,355.163879 595.451172,347.782715 
	C598.207581,337.539398 600.963684,327.295959 603.698669,317.046906 
	C604.094116,315.565094 604.371887,314.051880 604.915894,311.597443 
	C598.273621,315.288177 592.651917,318.411804 586.903320,321.143646 
	C585.013428,316.971008 583.250549,313.190186 581.746216,309.188721 
	C587.070496,305.964600 592.136230,302.961060 598.141785,299.400299 
	C560.537415,289.340302 524.107300,279.594421 487.677155,269.848541 
	C491.055695,266.415222 494.434235,262.981903 498.390198,259.265930 
	C534.691040,268.474304 570.414551,277.965271 606.996277,287.684265 
	C606.019287,282.702972 605.567566,279.052887 604.497009,275.594360 
	C604.060120,274.183044 602.486145,272.623596 601.074158,272.111542 
	C597.396301,270.777832 593.517700,270.001923 589.726562,268.976044 
	C564.167114,262.059570 538.609497,255.135956 513.051331,248.214661 
	C523.379456,243.269699 533.363464,237.352142 544.097656,233.555115 
	C582.145142,220.096466 620.009338,221.492142 656.868469,237.996048 
	C688.256470,252.050262 712.117065,274.499908 727.728638,305.536438 
	C725.529114,305.400513 723.643311,304.874146 721.753906,304.361389 
	C696.966919,297.635223 672.183899,290.894623 647.378906,284.235535 
	C646.172302,283.911652 644.427612,283.816223 643.522461,284.452393 
	C639.549255,287.244720 635.792908,290.345520 631.255493,293.881866 
	C633.765137,294.747437 635.112366,295.304993 636.508728,295.679474 
	C651.770142,299.772491 667.052734,303.786957 682.302673,307.921967 
	C700.428223,312.836731 718.527527,317.848389 736.638184,322.818085 
z"/>
<path fill="#A00401" opacity="1.000000" stroke="none" 
	d="
M627.719055,383.443207 
	C629.827942,372.238770 623.965149,362.892212 612.499451,359.910645 
	C607.919983,358.719727 606.786011,357.074066 608.143127,352.412140 
	C612.145508,338.663147 615.775513,324.801056 619.279114,310.914581 
	C620.298401,306.874603 621.574219,305.536987 626.073669,306.770325 
	C658.664612,315.703949 691.339172,324.332245 723.980957,333.080994 
	C725.347961,333.447418 726.651855,334.049225 729.202454,334.990662 
	C714.206238,343.710876 700.209961,351.849640 685.796875,360.230774 
	C688.062317,364.184906 690.090454,367.724854 692.470520,371.879028 
	C709.124451,362.234955 725.351135,352.838257 741.826294,343.196991 
	C742.559448,344.554474 743.044312,346.156525 743.330811,348.453430 
	C738.741028,365.787598 734.349548,382.426910 729.958069,399.066254 
	C727.935669,406.258026 725.881042,413.440918 723.899841,420.644043 
	C721.948853,427.737427 719.107422,429.934052 712.054993,428.808258 
	C689.573669,425.219513 667.106812,421.534668 644.664856,417.708221 
	C636.926636,416.388824 631.008240,412.157410 626.580811,404.705902 
	C635.264160,399.608215 643.651001,394.684601 652.600891,389.438293 
	C661.195312,384.524414 669.226807,379.933319 677.648315,375.119293 
	C675.195923,370.864899 673.088989,367.209717 670.804749,363.246887 
	C658.124390,370.670166 646.039673,377.744781 633.954956,384.819397 
	C631.957397,385.757660 629.959778,386.695892 627.483826,387.858795 
	C627.600769,386.186005 627.685425,384.975525 627.719055,383.443207 
M669.129761,392.054932 
	C666.888306,393.368286 664.646912,394.681641 662.121094,396.161621 
	C663.959534,399.446655 665.568420,402.148438 667.003296,404.939728 
	C668.179626,407.228149 669.577393,407.618988 671.797485,406.255371 
	C677.890686,402.512756 684.060425,398.894623 690.888916,395.063751 
	C694.548279,392.954742 698.207703,390.845734 702.127319,388.586731 
	C699.631348,384.308777 697.509827,380.672699 695.169556,376.661530 
	C686.259399,382.014771 678.039124,386.953613 669.129761,392.054932 
z"/>
<path fill="#38A805" opacity="1.000000" stroke="none" 
	d="
M362.000000,559.134155 
	C355.172760,559.122986 348.843964,559.199280 342.518585,559.084167 
	C320.539795,558.684387 306.800629,535.561951 316.973602,515.250061 
	C318.368866,516.072571 319.767487,516.831299 321.100098,517.692200 
	C359.210541,542.313538 408.974487,526.276245 425.475525,483.980225 
	C426.655640,480.955414 427.770935,479.844788 431.303101,481.067413 
	C457.557220,490.155273 483.894928,499.001526 510.202454,507.935303 
	C511.739410,508.457275 513.242065,509.080200 515.658997,509.996765 
	C512.924683,513.412598 510.609070,516.293030 508.306549,519.183899 
	C500.285126,529.255127 494.574158,540.529297 492.423126,553.210571 
	C491.557617,558.313049 489.406219,559.222839 484.883087,559.208618 
	C444.089081,559.079895 403.294434,559.133667 362.000000,559.134155 
z"/>
<path fill="#A00401" opacity="1.000000" stroke="none" 
	d="
M587.030212,321.535431 
	C592.651917,318.411804 598.273621,315.288177 604.915894,311.597443 
	C604.371887,314.051880 604.094116,315.565094 603.698669,317.046906 
	C600.963684,327.295959 598.207581,337.539398 595.451172,347.782715 
	C593.464966,355.163879 594.100647,354.713837 586.996216,353.002716 
	C576.168213,350.394806 566.779480,355.294098 562.875122,365.630676 
	C562.118408,368.189941 561.310303,370.360443 560.661072,372.577423 
	C556.912292,385.378235 546.406433,392.233124 533.764099,388.005219 
	C511.721954,380.633698 490.105042,371.990631 467.068329,363.418579 
	C478.407379,356.791779 488.687317,350.783905 499.517914,344.433472 
	C506.512115,340.418243 512.955688,336.745575 519.674194,332.916199 
	C517.727417,329.476562 516.335571,326.428894 514.354553,323.830231 
	C513.642456,322.896088 511.082336,322.270233 510.096680,322.818359 
	C501.837341,327.411377 493.748230,332.310486 485.607849,337.117371 
	C477.807678,341.459656 470.007507,345.801941 460.859802,350.894409 
	C462.891052,342.751526 464.590363,335.939423 466.494965,328.426697 
	C471.083771,311.114197 475.467285,294.502289 479.850769,277.890381 
	C481.265076,274.380127 482.408905,270.621582 487.357574,269.955963 
	C524.107300,279.594421 560.537415,289.340302 598.141785,299.400299 
	C592.136230,302.961060 587.070496,305.964600 581.420410,309.330078 
	C566.929626,317.763214 553.023254,325.834351 538.762817,333.988953 
	C532.621765,337.427979 526.834778,340.783630 520.879578,344.236816 
	C523.324951,348.401062 525.398804,351.932587 527.823364,356.061249 
	C536.508301,350.922760 544.856934,345.983215 553.534668,340.955688 
	C564.919312,334.423615 575.974731,327.979523 587.030212,321.535431 
M549.158691,307.000336 
	C548.282227,305.434906 547.405823,303.869446 546.241821,301.790497 
	C537.809143,306.671295 529.724731,311.350525 521.412903,316.161377 
	C523.348755,319.569397 524.965881,322.271790 526.437195,325.051270 
	C527.657227,327.356018 529.147400,327.584259 531.286560,326.243713 
	C535.504333,323.600525 539.801208,321.083405 544.780090,318.289185 
	C547.452454,316.745850 550.124817,315.202515 553.138733,313.461914 
	C551.665344,311.218719 550.497681,309.440948 549.158691,307.000336 
z"/>
<path fill="#37A705" opacity="1.000000" stroke="none" 
	d="
M700.231384,507.887817 
	C688.678101,505.982727 677.566956,504.126984 666.455872,502.271210 
	C666.445374,501.867188 666.434814,501.463196 666.424316,501.059174 
	C673.445374,499.525208 680.451050,497.916748 687.490112,496.470306 
	C716.357727,490.538361 745.235168,484.653931 774.109863,478.756439 
	C780.961121,477.357117 787.792297,475.833435 794.685547,474.683685 
	C796.426453,474.393372 798.753296,474.784088 800.158386,475.781281 
	C808.031250,481.368469 815.709167,487.230774 823.443604,493.012451 
	C827.855835,496.310669 829.087585,500.824219 827.690918,505.899078 
	C826.394348,510.610382 822.848083,513.027161 818.018860,513.139099 
	C799.250183,513.573914 780.433533,514.877686 761.721130,514.005066 
	C741.322021,513.053772 721.018677,510.047546 700.231384,507.887817 
z"/>
<path fill="#7A02FB" opacity="1.000000" stroke="none" 
	d="
M524.795288,530.812561 
	C525.139221,530.419067 525.257324,530.300659 525.360535,530.170532 
	C533.524475,519.875793 542.525391,516.163696 556.376404,520.732666 
	C576.518372,527.376709 597.594727,531.182678 618.252380,536.280884 
	C619.775940,536.656982 621.891113,537.329407 622.447815,538.483337 
	C625.570740,544.955688 628.299561,551.618103 631.541687,559.088562 
	C590.716919,559.088562 551.572449,559.088562 511.927124,559.088562 
	C513.284363,548.176880 518.228516,539.325500 524.795288,530.812561 
z"/>
<path fill="#7902FA" opacity="1.000000" stroke="none" 
	d="
M382.629517,503.723145 
	C362.055786,512.984375 343.465271,510.169037 326.315125,496.299408 
	C323.446106,493.979156 322.595947,491.682739 324.338806,488.203613 
	C330.963898,474.978210 337.394104,461.655273 343.962738,448.401306 
	C344.755127,446.802460 345.947510,445.401917 346.860107,444.049377 
	C367.330994,453.625885 387.457123,463.041138 408.099335,472.697784 
	C404.146637,486.357056 395.641266,496.603149 382.629517,503.723145 
z"/>
<path fill="#9E0501" opacity="1.000000" stroke="none" 
	d="
M575.139954,370.324463 
	C579.521851,365.062592 582.298157,364.728302 589.715027,368.317322 
	C589.439453,369.834198 589.151428,371.419159 588.646240,373.697388 
	C584.932800,390.083221 577.651550,403.132935 562.893005,410.961487 
	C545.400085,419.348663 528.456177,416.065887 511.320862,409.254181 
	C492.648712,401.831604 473.761108,394.911133 454.767761,388.349701 
	C440.540100,383.434662 432.805542,374.103882 431.883148,358.683777 
	C432.252869,354.855591 432.703461,351.422638 433.277405,347.049744 
	C437.373138,348.137909 441.046936,348.900818 444.528778,350.184418 
	C445.433960,350.518066 446.239716,352.476349 446.243073,353.690796 
	C446.274811,365.215057 452.212433,372.168060 462.690247,376.073303 
	C482.958099,383.627533 503.133606,391.429291 523.390137,399.014343 
	C540.520081,405.428680 555.498291,402.533752 566.119629,391.021332 
	C571.432495,385.262756 573.127625,377.937622 575.139954,370.324463 
z"/>
<path fill="#9E0501" opacity="1.000000" stroke="none" 
	d="
M601.316895,377.011414 
	C602.742126,375.337280 604.063843,372.352631 605.611450,372.230438 
	C610.597351,371.836823 613.537170,374.777161 614.884155,380.372803 
	C608.517395,399.192932 611.411804,413.483459 625.145508,423.204041 
	C631.034241,427.372070 638.477783,430.231171 645.613220,431.583862 
	C667.182434,435.672882 688.942200,438.761902 710.637024,442.181183 
	C721.365784,443.872101 729.093994,440.137085 734.774658,431.108276 
	C735.537781,429.895447 737.791626,428.805725 739.195801,428.975616 
	C742.419861,429.365845 745.545593,430.568451 748.652893,431.425232 
	C745.492249,448.439575 731.039001,459.402191 714.661865,457.258026 
	C704.934082,455.984467 695.282776,454.126648 685.246094,452.603210 
	C671.190308,450.156616 657.541504,447.260254 643.765930,445.218903 
	C627.771057,442.848724 615.010986,435.530914 605.051331,422.031067 
	C599.956787,413.279297 597.044678,404.502991 597.937073,394.997528 
	C598.504822,388.949677 600.153137,383.003296 601.316895,377.011414 
z"/>
<path fill="#9F0501" opacity="1.000000" stroke="none" 
	d="
M512.643311,248.128784 
	C538.609497,255.135956 564.167114,262.059570 589.726562,268.976044 
	C593.517700,270.001923 597.396301,270.777832 601.074158,272.111542 
	C602.486145,272.623596 604.060120,274.183044 604.497009,275.594360 
	C605.567566,279.052887 606.019287,282.702972 606.996277,287.684265 
	C570.414551,277.965271 534.691040,268.474304 498.595428,258.990784 
	C484.041962,253.699051 474.435638,257.393433 467.450012,271.358398 
	C463.535248,270.347565 459.468903,269.297607 455.475830,268.266571 
	C456.608765,257.566925 466.960419,247.190903 478.856659,243.986282 
	C488.475433,241.395187 497.439117,244.233673 506.494202,246.745972 
	C508.382477,247.269852 510.320251,247.615250 512.643311,248.128784 
z"/>
<path fill="#9F0501" opacity="1.000000" stroke="none" 
	d="
M737.064819,322.817841 
	C718.527527,317.848389 700.428223,312.836731 682.302673,307.921967 
	C667.052734,303.786957 651.770142,299.772491 636.508728,295.679474 
	C635.112366,295.304993 633.765137,294.747437 631.255493,293.881866 
	C635.792908,290.345520 639.549255,287.244720 643.522461,284.452393 
	C644.427612,283.816223 646.172302,283.911652 647.378906,284.235535 
	C672.183899,290.894623 696.966919,297.635223 721.753906,304.361389 
	C723.643311,304.874146 725.529114,305.400513 727.831543,305.877441 
	C733.280212,307.226196 738.280273,308.756470 743.353394,309.985138 
	C762.190186,314.547363 773.814453,330.906311 770.899170,348.935638 
	C770.746277,349.881134 770.382507,350.792542 769.937622,352.345551 
	C766.283936,351.385284 762.760803,350.619781 759.374023,349.457153 
	C758.520569,349.164185 757.574402,347.605591 757.565002,346.620117 
	C757.428406,332.230896 752.450012,326.260712 737.064819,322.817841 
z"/>
<path fill="#37A705" opacity="1.000000" stroke="none" 
	d="
M690.341431,549.777466 
	C709.461304,552.206543 728.142456,554.562988 746.823608,556.919495 
	C746.835388,557.392944 746.847229,557.866455 746.859070,558.339905 
	C742.004944,558.834595 737.153198,559.728821 732.296387,559.756897 
	C706.997620,559.903137 681.697449,559.781616 656.398254,559.882019 
	C652.545532,559.897339 650.596252,558.509094 649.980896,554.631226 
	C649.367188,550.763672 648.233032,546.978699 647.134827,542.346680 
	C661.863220,544.880615 675.882935,547.292664 690.341431,549.777466 
z"/>
<path fill="#9E0501" opacity="1.000000" stroke="none" 
	d="
M454.326996,322.609772 
	C452.947937,327.341644 451.568878,332.073517 450.030853,337.350708 
	C445.566528,336.110504 441.502655,334.981567 436.953003,333.717682 
	C441.649658,316.144226 446.214203,299.065033 450.978699,281.237701 
	C455.444763,282.436432 459.515808,283.529144 464.083679,284.755188 
	C462.181366,292.489197 460.373749,299.838348 458.746216,307.591339 
	C458.926361,307.995178 458.951508,307.931732 458.629578,308.025604 
	C458.048248,308.738800 457.788849,309.358093 457.325684,310.275391 
	C456.190247,314.585541 455.258606,318.597656 454.326996,322.609772 
z"/>
<path fill="#9E0501" opacity="1.000000" stroke="none" 
	d="
M745.236938,391.825104 
	C748.027344,382.122589 750.817688,372.420074 753.555664,362.899994 
	C754.317627,362.776062 754.655579,362.634949 754.963623,362.683441 
	C767.053650,364.586456 767.069641,364.593048 763.981812,376.154816 
	C760.296631,389.953156 756.579773,403.743042 752.681091,418.264923 
	C748.307861,417.090302 744.236633,415.996796 739.637634,414.761536 
	C740.868164,409.800323 742.015381,405.174927 743.347534,399.859283 
	C744.100647,396.721069 744.668823,394.273102 745.236938,391.825104 
z"/>
<path fill="#3BA205" opacity="1.000000" stroke="none" 
	d="
M634.354309,384.885284 
	C646.039673,377.744781 658.124390,370.670166 670.804749,363.246887 
	C673.088989,367.209717 675.195923,370.864899 677.648315,375.119293 
	C669.226807,379.933319 661.195312,384.524414 652.851074,389.186554 
	C646.610107,387.822113 640.681885,386.386627 634.354309,384.885284 
z"/>
<path fill="#3BA205" opacity="1.000000" stroke="none" 
	d="
M454.644958,322.769226 
	C455.258606,318.597656 456.190247,314.585541 457.604248,310.099640 
	C458.374878,309.061157 458.663208,308.496429 458.951508,307.931732 
	C458.951508,307.931732 458.926361,307.995178 458.893646,307.988098 
	C464.496399,299.461945 470.103607,290.923889 475.794006,282.441650 
	C476.795959,280.948059 478.145935,279.687958 479.592987,278.105194 
	C475.467285,294.502289 471.083771,311.114197 466.481232,328.036621 
	C462.495758,326.540955 458.729370,324.734802 454.644958,322.769226 
z"/>
<path fill="#3BA205" opacity="1.000000" stroke="none" 
	d="
M745.189758,391.323059 
	C744.668823,394.273102 744.100647,396.721069 743.352661,399.452148 
	C739.051025,399.521362 734.929260,399.307495 730.382812,399.079926 
	C734.349548,382.426910 738.741028,365.787598 743.331909,348.834473 
	C745.597717,362.562500 746.814575,376.636719 745.189758,391.323059 
z"/>
<path fill="#3BA205" opacity="1.000000" stroke="none" 
	d="
M485.860901,337.381165 
	C493.748230,332.310486 501.837341,327.411377 510.096680,322.818359 
	C511.082336,322.270233 513.642456,322.896088 514.354553,323.830231 
	C516.335571,326.428894 517.727417,329.476562 519.674194,332.916199 
	C512.955688,336.745575 506.512115,340.418243 499.744324,344.166260 
	C494.984711,342.042694 490.549316,339.843811 485.860901,337.381165 
z"/>
<path fill="#076F04" opacity="1.000000" stroke="none" 
	d="
M573.079712,674.070923 
	C556.627075,695.583435 525.099548,695.266479 509.021729,674.242004 
	C503.598114,667.149719 500.765594,659.082520 500.908508,650.105957 
	C500.997559,644.512085 504.735229,640.576233 510.099884,640.117798 
	C515.077026,639.692383 519.206970,642.883240 520.436096,648.261658 
	C520.952332,650.520935 521.004578,652.892822 521.593933,655.127563 
	C524.028015,664.357605 532.497986,670.418274 542.138489,669.970398 
	C551.285034,669.545593 559.021118,662.630127 560.737854,653.300598 
	C561.068726,651.502441 561.100159,649.638184 561.546997,647.874634 
	C562.824524,642.832764 567.551758,639.481201 572.254395,640.129700 
	C577.601929,640.867126 581.223450,644.970581 581.098511,650.479370 
	C580.904541,659.030029 578.335327,666.833374 573.079712,674.070923 
z"/>
<path fill="#076F04" opacity="1.000000" stroke="none" 
	d="
M499.706848,624.460876 
	C497.245667,628.667786 493.618042,630.167480 489.435181,629.642334 
	C485.720062,629.176025 482.377899,627.477356 481.184692,623.443115 
	C479.982819,619.379578 480.203766,615.402222 483.695251,612.520081 
	C487.318176,609.529419 491.452087,609.055054 495.765533,611.230286 
	C499.944275,613.337585 500.939728,616.973877 500.581146,621.230652 
	C500.498993,622.206055 500.123108,623.156738 499.706848,624.460876 
z"/>
<path fill="#076F04" opacity="1.000000" stroke="none" 
	d="
M582.110596,615.375977 
	C585.156006,610.618347 589.207886,609.049622 594.244995,610.409912 
	C598.281128,611.499878 600.807373,614.084229 601.228516,618.441284 
	C601.845459,624.823853 597.839966,629.597290 591.612854,629.845154 
	C585.349976,630.094360 580.742859,625.126343 581.261047,618.612732 
	C581.338379,617.640564 581.717712,616.692505 582.110596,615.375977 
z"/>
<path fill="#066B02" opacity="1.000000" stroke="none" 
	d="
M600.940491,376.881897 
	C600.153137,383.003296 598.504822,388.949677 597.937073,394.997528 
	C597.044678,404.502991 599.956787,413.279297 604.791870,421.825806 
	C591.122192,418.545380 577.351746,414.913605 563.237183,411.121643 
	C577.651550,403.132935 584.932800,390.083221 588.646973,374.073669 
	C592.764709,374.755280 596.664368,375.753815 600.940491,376.881897 
z"/>
<path fill="#066B02" opacity="1.000000" stroke="none" 
	d="
M539.116943,333.905518 
	C553.023254,325.834351 566.929626,317.763214 581.161804,309.550690 
	C583.250549,313.190186 585.013428,316.971008 586.903320,321.143646 
	C575.974731,327.979523 564.919312,334.423615 553.258118,340.697998 
	C549.436829,339.679260 546.262390,338.444183 542.993469,338.096588 
	C540.081238,337.786896 538.733765,336.866547 539.116943,333.905518 
z"/>
<path fill="#3BA205" opacity="1.000000" stroke="none" 
	d="
M669.818787,391.892395 
	C678.039124,386.953613 686.259399,382.014771 695.169556,376.661530 
	C697.509827,380.672699 699.631348,384.308777 702.127319,388.586731 
	C698.207703,390.845734 694.548279,392.954742 690.115295,395.091431 
	C682.834045,394.043518 676.326416,392.967957 669.818787,391.892395 
z"/>
<path fill="#066B02" opacity="1.000000" stroke="none" 
	d="
M669.474243,391.973663 
	C676.326416,392.967957 682.834045,394.043518 689.770752,395.173157 
	C684.060425,398.894623 677.890686,402.512756 671.797485,406.255371 
	C669.577393,407.618988 668.179626,407.228149 667.003296,404.939728 
	C665.568420,402.148438 663.959534,399.446655 662.121094,396.161621 
	C664.646912,394.681641 666.888306,393.368286 669.474243,391.973663 
z"/>
<path fill="#3BA205" opacity="1.000000" stroke="none" 
	d="
M544.065308,318.514130 
	C539.801208,321.083405 535.504333,323.600525 531.286560,326.243713 
	C529.147400,327.584259 527.657227,327.356018 526.437195,325.051270 
	C524.965881,322.271790 523.348755,319.569397 521.412903,316.161377 
	C529.724731,311.350525 537.809143,306.671295 546.241821,301.790497 
	C547.405823,303.869446 548.282227,305.434906 549.024780,307.634735 
	C547.282349,311.684113 545.673828,315.099121 544.065308,318.514130 
z"/>
<path fill="#3BA205" opacity="1.000000" stroke="none" 
	d="
M538.762817,333.988953 
	C538.733765,336.866547 540.081238,337.786896 542.993469,338.096588 
	C546.262390,338.444183 549.436829,339.679260 552.928955,340.785980 
	C544.856934,345.983215 536.508301,350.922760 527.823364,356.061249 
	C525.398804,351.932587 523.324951,348.401062 520.879578,344.236816 
	C526.834778,340.783630 532.621765,337.427979 538.762817,333.988953 
z"/>
<path fill="#066B02" opacity="1.000000" stroke="none" 
	d="
M544.422729,318.401672 
	C545.673828,315.099121 547.282349,311.684113 549.110474,307.966156 
	C550.497681,309.440948 551.665344,311.218719 553.138733,313.461914 
	C550.124817,315.202515 547.452454,316.745850 544.422729,318.401672 
z"/>
<path fill="#036D03" opacity="1.000000" stroke="none" 
	d="
M458.629578,308.025604 
	C458.663208,308.496429 458.374878,309.061157 457.808014,309.801636 
	C457.788849,309.358093 458.048248,308.738800 458.629578,308.025604 
z"/>
</svg>